<svg style="overflow: hidden; position: absolute; left: 0px; top: 0px;" height="250" version="1.1" width="250" xmlns="http://www.w3.org/2000/svg" xmlns:xlink="http://www.w3.org/1999/xlink"><desc style="-webkit-tap-highlight-color: rgba(0, 0, 0, 0);">Created with Raphaël 2.2.0</desc><defs style="-webkit-tap-highlight-color: rgba(0, 0, 0, 0);"></defs><path style="-webkit-tap-highlight-color: rgba(0, 0, 0, 0);" fill="#ffffff" stroke="#000000" d="M67.855339,97.42888C66.866154,105.0399,64.187902,108.43097,51.000228,110.71753000000001C54.901453000000004,116.54231000000001,59.736954,120.11564000000001,40.281969000000004,131.04156C49.23758600000001,139.26041,55.54965,143.17675,50.737608,150.40923C64.570875,152.02912,62.356208,156.71432000000001,65.294424,169.35024C68.462771,141.05579,84.619089,139.79713,88.847738,138.65479000000002C92.47122900000001,146.27257000000003,201.82421,174.64717000000002,238.85539,130.57357000000002C238.02635,129.47753000000003,220.57899,132.28983000000002,219.74745000000001,131.23217000000002C219.1062,130.41654000000003,238.19602,124.64597000000002,237.26706000000001,124.22313000000003C197.56654000000003,106.15238000000002,117.07336000000001,104.70751000000003,88.84773700000002,126.02788000000002C68.36248800000003,122.57873000000002,71.69110600000002,114.91583000000003,67.85533900000001,97.42888000000002C67.85533900000001,97.42888000000002,67.855339,97.42888,67.855339,97.42888" stroke-width="2"></path><path style="-webkit-tap-highlight-color: rgba(0, 0, 0, 0);" fill="#ffffff" stroke="#000000" d="M224.72087,128.95491C224.72087,128.95491,231.5394,126.70237000000002,231.5394,126.70237000000002C232.11637,148.73515,228.71878,171.86822,223.7031,190.17257C226.89504,168.49238,229.7669,144.22779,224.72087000000002,128.95491C224.72087000000002,128.95491,224.72087,128.95491,224.72087,128.95491" stroke-width="2"></path><path style="-webkit-tap-highlight-color: rgba(0, 0, 0, 0);" fill="#ffffff" stroke="#000000" d="M197.63909,113.26346C190.89139,108.19403,184.02016,105.31218,183.87132,92.324116C152.17944,118.07002,123.38644,92.572086,90.75,124.5C112.77265,112.4333,151.78364,106.58974,197.63909,113.26346C197.63909,113.26346,197.63909,113.26346,197.63909,113.26346" stroke-width="2"></path><path style="-webkit-tap-highlight-color: rgba(0, 0, 0, 0);" fill="#ffffff" stroke="#000000" d="M151.5,135C149.12991,140.27411,148.31883,144.40731,147,149C143.6018,139.43818,141.933,139.87712,136.22792,137.77297C141.91341,135.86345999999998,142.85161000000002,135.72284,144.5,133.5C144.5,133.5,151.5,135,151.5,135" stroke-width="2"></path><path style="-webkit-tap-highlight-color: rgba(0, 0, 0, 0);" fill="#ffffff" stroke="#000000" d="M187.50513,130.44158C187.50513,137.97312,181.51267,144.07863999999998,174.12061,144.07863999999998C166.72854,144.07863999999998,160.73608,137.97311999999997,160.73608,130.44158C160.73608,122.91003999999998,166.72853999999998,116.80451999999998,174.12061,116.80451999999998C181.51266999999999,116.80451999999998,187.50513,122.91003999999998,187.50513,130.44158C187.50513,130.44158,187.50513,130.44158,187.50513,130.44158" stroke-width="2"></path><path style="-webkit-tap-highlight-color: rgba(0, 0, 0, 0);" fill="#000000" stroke="#000000" d="M185.9899,132.71442C185.9899,137.59597,181.69342,141.55325,176.39345,141.55325C171.09348,141.55325,166.797,137.59597,166.797,132.71442C166.797,127.83285999999998,171.09348,123.87557999999999,176.39345,123.87557999999999C181.69342,123.87557999999999,185.9899,127.83285999999998,185.9899,132.71442C185.9899,132.71442,185.9899,132.71442,185.9899,132.71442" stroke-width="2"></path></svg>