<svg style="overflow: hidden; position: absolute; left: 0px; top: 0px;" height="250" version="1.1" width="250" xmlns="http://www.w3.org/2000/svg" xmlns:xlink="http://www.w3.org/1999/xlink"><desc style="-webkit-tap-highlight-color: rgba(0, 0, 0, 0);">Created with Raphaël 2.2.0</desc><defs style="-webkit-tap-highlight-color: rgba(0, 0, 0, 0);"></defs><path style="-webkit-tap-highlight-color: rgba(0, 0, 0, 0);" fill="none" stroke="#000000" d="M101.31375,193.06422C98.731567,190.48204,96.149385,187.03912,92.706476,186.17838C85.82064799999999,183.59619,78.074091,186.17838,73.770449,191.34275C70.327536,196.50713,69.466807,204.25369,73.770449,209.41806C76.35263499999999,212.00025,80.656277,213.7217,84.099191,212.86096C87.542105,212.00025,90.12428600000001,207.69659000000001,89.263563,204.25369C89.263563,201.6715,86.681377,199.08931,84.099191,199.95005C82.377734,199.95005,80.656277,202.53224,81.51700600000001,204.25369C81.51700600000001,205.11441,84.099191,205.97514,84.099191,204.25369M105.53132000000001,181.61653C105.53132000000001,179.89508,104.67060000000001,177.31289,103.80987,175.59142C100.36697000000001,168.70559,95.202589,162.6805,88.316761,160.95904C83.15239,159.23757999999998,77.12729,160.09832,72.823648,162.6805C69.380734,164.40195,65.937821,168.70559,65.937821,173.00924C65.937821,177.31289,70.241463,181.61653,74.545105,180.75579000000002C77.98802,180.75579000000002,81.43093300000001,176.45215000000002,80.570205,173.00924C80.570205,169.56633,76.26656200000001,166.98414,72.823648,168.70559C70.24146300000001,169.56633,69.380734,173.00924,71.102191,175.59142C72.823648,177.31289,75.405834,177.31289,76.26656200000001,174.7307C77.12729,173.00924,75.40583400000001,171.28778000000003,73.68437600000001,171.28778000000003C71.96292000000001,171.28778000000003,71.96292000000001,174.7307,73.68437600000001,173.86997000000002M105.53132000000002,181.61653C104.67060000000002,168.70559,106.39206000000003,151.49102000000002,116.72080000000003,143.74448C120.16371000000002,141.16229,126.18882000000002,138.58011000000002,131.35319,139.44082C138.23901,141.16229,144.2641,146.32667,142.54265,154.07321C141.68192000000002,160.09832,135.65683,164.40195,129.63172,163.54121999999998C125.32808,162.6805,121.88518,158.37686,122.74589,154.07321C123.60663000000001,150.63029999999998,127.04954000000001,148.04811999999998,130.49245,148.90884C133.07464,149.76957,134.79609,151.49102,133.93537999999998,154.07321C133.07464,155.79468,132.21390999999997,156.65538999999998,130.49245,156.65538999999998C129.63172,156.65538999999998,128.771,154.93393999999998,129.63172,154.07321C129.63172,153.21249,130.49245,153.21249,131.35319,153.21249M113.36395000000002,186.43661C117.66760000000002,179.55077,124.55344000000002,172.66494,133.16071000000002,170.08276C147.7931,164.91839000000002,165.00767000000002,171.80423000000002,171.03276000000002,185.57588C174.47568,192.4617,173.61495000000002,201.92972,169.31131000000002,207.95483000000002C166.72912000000002,212.25846,160.70403000000002,213.97992000000002,155.53966000000003,211.39773000000002C150.37528000000003,209.67628000000002,146.07165000000003,203.65117000000004,147.79310000000004,198.48681000000002C148.65383000000003,194.18316000000002,154.67892000000003,190.74025000000003,158.98256000000003,193.32244000000003C162.42548000000002,195.04389000000003,165.00767000000005,200.20826000000002,161.56475000000003,202.79045000000002C158.98256000000003,205.37264000000002,154.67892000000003,203.65117,154.67892000000003,200.20826000000002C153.81820000000005,196.76534000000004,159.84330000000003,197.62608000000003,158.12185000000002,200.20826000000002M115.77400000000003,202.70438000000001C134.71002000000004,186.35053000000002,150.20314000000002,200.12219000000002,150.20314000000002,219.91895000000002C148.48168,229.38696000000002,140.73513000000003,237.13351000000003,131.26712000000003,235.41205000000002C124.38128000000003,234.55132000000003,118.35618000000004,226.80478000000002,120.07763000000003,219.05822000000003C120.93837000000003,213.03311000000002,126.96346000000003,207.86875000000003,132.12783000000002,209.59021000000004C136.43148000000002,210.45092000000005,139.87439,214.75458000000003,139.01366000000002,219.91895000000005C138.15294000000003,223.36186000000006,134.71002000000001,225.94404000000006,132.12783000000002,225.08331000000004C130.40638,224.22259000000005,128.68493,222.50112000000004,129.54565000000002,219.91895000000005C130.40638,219.05822000000006,131.26712000000003,217.33677000000006,132.98857,218.19748000000004" stroke-width="2"></path><path style="-webkit-tap-highlight-color: rgba(0, 0, 0, 0);" fill="#dda0dd" stroke="#000000" d="M121.43021,144.54919C121.43021099470623,146.68834318507515,119.6960831850754,148.42247,117.55693000000001,148.42247C115.41777681492462,148.42247,113.68364900529379,146.68834318507515,113.68365000000001,144.54919C113.68364900529379,142.41003681492487,115.41777681492462,140.67591000000002,117.55693000000001,140.67591000000002C119.6960831850754,140.67591000000002,121.43021099470623,142.41003681492487,121.43021,144.54919C121.43021,144.54919,121.43021,144.54919,121.43021,144.54919M71.029236,162.91929000000002C71.02923699470622,165.05844318507516,69.29511118507538,166.79257,67.155958,166.79257C65.01680481492461,166.79257,63.28267800529377,165.05844318507516,63.282679,162.91929000000002C63.28268352857903,160.78014072048578,65.01680872048097,159.04602000000003,67.155958,159.04602000000003C69.29510727951903,159.04602000000003,71.02923147142097,160.78014072048578,71.029236,162.91929000000002C71.029236,162.91929000000002,71.029236,162.91929000000002,71.029236,162.91929000000002M81.836688,160.04229C81.83668899470622,162.18144318507515,80.10256218507539,163.91557,77.963409,163.91557C75.82425581492461,163.91557,74.09013000529377,162.18144318507515,74.090131,160.04229C74.09013000529377,157.90313681492486,75.82425581492461,156.16901000000001,77.963409,156.16901000000001C80.10256218507539,156.16901000000001,81.83668899470622,157.90313681492486,81.836688,160.04229C81.836688,160.04229,81.836688,160.04229,81.836688,160.04229M111.10146,148.85283C111.10146099470623,150.99198318507516,109.3673331850754,152.72611,107.22818000000001,152.72611C105.08902681492462,152.72611,103.35489900529379,150.99198318507516,103.35490000000001,148.85283C103.35489900529379,146.71367681492487,105.08902681492462,144.97955000000002,107.22818000000001,144.97955000000002C109.3673331850754,144.97955000000002,111.10146099470623,146.71367681492487,111.10146,148.85283C111.10146,148.85283,111.10146,148.85283,111.10146,148.85283M146.22641,148.82913000000002C146.2264109947062,150.96828318507517,144.4922831850754,152.70241000000001,142.35313,152.70241000000001C140.2139768149246,152.70241000000001,138.47984900529377,150.96828318507517,138.47985,148.82913000000002C138.47984900529377,146.68997681492488,140.2139768149246,144.95585000000003,142.35313,144.95585000000003C144.4922831850754,144.95585000000003,146.2264109947062,146.68997681492488,146.22641,148.82913000000002C146.22641,148.82913000000002,146.22641,148.82913000000002,146.22641,148.82913000000002M133.98280999999997,149.78182C133.9828109947062,151.92097318507516,132.24868318507538,153.6551,130.10952999999998,153.6551C127.97037681492458,153.6551,126.23626900529375,151.92097318507516,126.23626999999998,149.78182C126.23626900529375,147.64266681492487,127.97037681492459,145.90854000000002,130.10952999999998,145.90854000000002C132.24868318507538,145.90854000000002,133.9828109947062,147.64266681492487,133.98280999999997,149.78182C133.98280999999997,149.78182,133.98280999999997,149.78182,133.98280999999997,149.78182M157.58079999999998,168.27712000000002C157.58079547142097,170.41626927951427,155.84666927951903,172.15039000000002,153.70752,172.15039000000002C151.56837072048094,172.15039000000002,149.834244528579,170.41626927951427,149.83424,168.27712000000002C149.83423900529377,166.13796681492488,151.5683668149246,164.40384000000003,153.70752,164.40384000000003C155.8466731850754,164.40384000000003,157.5808009947062,166.13796681492488,157.58079999999998,168.27712000000002C157.58079999999998,168.27712000000002,157.58079999999998,168.27712000000002,157.58079999999998,168.27712000000002M146.29462999999998,169.22979000000004C146.29462547142097,171.36893927951428,144.56049927951904,173.10306000000003,142.42135,173.10306000000003C140.28220072048094,173.10306000000003,138.548074528579,171.36893927951428,138.54807,169.22979000000004C138.54806900529377,167.0906368149249,140.2821968149246,165.35651000000004,142.42135,165.35651000000004C144.5605031850754,165.35651000000004,146.2946309947062,167.0906368149249,146.29462999999998,169.22979000000004C146.29462999999998,169.22979000000004,146.29462999999998,169.22979000000004,146.29462999999998,169.22979000000004M152.28540999999998,194.90549000000004C152.28540547142097,197.04463927951429,150.55127927951904,198.77876000000003,148.41213,198.77876000000003C146.27298072048094,198.77876000000003,144.538854528579,197.04463927951429,144.53885,194.90549000000004C144.53884900529377,192.7663368149249,146.2729768149246,191.03221000000005,148.41213,191.03221000000005C150.5512831850754,191.03221000000005,152.2854109947062,192.7663368149249,152.28540999999998,194.90549000000004C152.28540999999998,194.90549000000004,152.28540999999998,194.90549000000004,152.28540999999998,194.90549000000004M162.54117,190.59237000000005C162.54116547142098,192.7315192795143,160.80703927951905,194.46564000000004,158.66789,194.46564000000004C156.52874072048095,194.46564000000004,154.79461452857902,192.7315192795143,154.79461,190.59237000000005C154.79460900529378,188.4532168149249,156.5287368149246,186.71909000000005,158.66789,186.71909000000005C160.8070431850754,186.71909000000005,162.54117099470622,188.4532168149249,162.54117,190.59237000000005C162.54117,190.59237000000005,162.54117,190.59237000000005,162.54117,190.59237000000005M96.93242,207.2539C96.93242099470622,209.39305318507513,95.19829318507539,211.12717999999998,93.05914,211.12717999999998C90.91998681492461,211.12717999999998,89.18586600529378,209.39305318507513,89.185867,207.2539C89.18586600529378,205.11474681492484,90.91998681492461,203.38062,93.05914,203.38062C95.19829318507539,203.38062,96.93242099470622,205.11474681492484,96.93242,207.2539C96.93242,207.2539,96.93242,207.2539,96.93242,207.2539M88.51851199999999,214.4298C88.51851299470621,216.56895318507515,86.78438918507537,218.30308,84.64523599999998,218.30308C82.5060828149246,218.30308,80.77195700529376,216.56895318507515,80.77195799999998,214.4298C80.77195700529376,212.29064681492486,82.5060828149246,210.55652,84.64523599999998,210.55652C86.78438918507537,210.55652,88.51851299470621,212.29064681492486,88.51851199999999,214.4298C88.51851199999999,214.4298,88.51851199999999,214.4298,88.51851199999999,214.4298M141.14086999999998,206.95207C141.1408709947062,209.09122318507514,139.40674318507538,210.82535,137.26758999999998,210.82535C135.12843681492458,210.82535,133.39430900529376,209.09122318507514,133.39431,206.95207C133.39430900529376,204.81291681492485,135.12843681492458,203.07879,137.26758999999998,203.07879C139.40674318507538,203.07879,141.1408709947062,204.81291681492485,141.14086999999998,206.95207C141.14086999999998,206.95207,141.14086999999998,206.95207,141.14086999999998,206.95207M130.81213999999997,211.25572C130.81213547142096,213.39486927951424,129.07800927951902,215.12899,126.93885999999998,215.12899C124.79971072048093,215.12899,123.06558452857901,213.39486927951424,123.06557999999998,211.25572C123.06557900529376,209.11656681492485,124.79970681492459,207.38244,126.93885999999998,207.38244C129.07801318507535,207.38244,130.8121409947062,209.11656681492485,130.81213999999997,211.25572C130.81213999999997,211.25572,130.81213999999997,211.25572,130.81213999999997,211.25572" stroke-width="2"></path><path style="-webkit-tap-highlight-color: rgba(0, 0, 0, 0);" fill="#5da5db" stroke="#000000" d="M94.46043,246.30024C94.46043,246.30024,124.91546,246.67622,124.91546,246.67622C115.24987,239.04307,112.28083,225.88085,115.51575,202.30964C111.5818,203.57927,109.13808999999999,204.12457,113.25981999999999,186.14216C106.42399999999999,199.31797999999998,106.04673999999999,186.79603,104.98808999999999,177.49444C106.42238999999998,189.71832,104.50382999999998,193.41518,101.55857999999999,192.97446C105.81306,203.76676,106.49439,226.51612,94.46042999999999,246.30024C94.46042999999999,246.30024,94.46043,246.30024,94.46043,246.30024" stroke-width="2"></path><path style="-webkit-tap-highlight-color: rgba(0, 0, 0, 0);" fill="#5da5db" stroke="#000000" d="M160.55255,141.36941C153.74366,142.37312,150.01069,146.69090999999997,150.01069,146.69090999999997C146.39169,155.89883999999998,151.58804,161.93010999999998,159.2384,156.63311999999996C161.04003,153.62427999999997,162.63384000000002,146.14522999999997,160.55255000000002,141.36940999999996C160.55255000000002,141.36940999999996,160.55255,141.36941,160.55255,141.36941M42.570262,164.20063C47.435314,159.33240999999998,53.127378,158.90947,53.127378,158.90947C62.677585,161.49336,64.421987,169.26094,55.608355,172.24525C52.118605,171.89794,45.163785000000004,168.7188,42.570262,164.20063C42.570262,164.20063,42.570262,164.20063,42.570262,164.20063M111.61036,157.86621C118.41925,158.86992,122.15222,163.18771999999998,122.15222,163.18771999999998C125.77122,172.39564,120.57487,178.42691,112.92451,173.12991999999997C111.12288,170.12108999999998,109.52907,162.64202999999998,111.61036,157.86620999999997C111.61036,157.86620999999997,111.61036,157.86621,111.61036,157.86621M139.80991,187.26414C138.33032,180.5426,133.76093,177.12221,133.76093,177.12221C124.3215,174.15905999999998,118.67021,179.7663,124.49158,187.02561C127.61957,188.61139,135.19212,189.67583,139.80991,187.26414C139.80991,187.26414,139.80991,187.26414,139.80991,187.26414M162.23536000000001,214.69917C157.37030000000001,209.83094,151.67824000000002,209.40800000000002,151.67824000000002,209.40800000000002C142.12803000000002,211.99189,140.38363,219.75947000000002,149.19726000000003,222.74378000000002C152.68701000000001,222.39647000000002,159.64183000000003,219.21733,162.23536000000001,214.69917C162.23536000000001,214.69917,162.23536000000001,214.69917,162.23536000000001,214.69917M151.0131,238.73661C152.00271,231.92567000000003,148.93577000000002,227.11190000000002,148.93577000000002,227.11190000000002C141.15113000000002,221.00596000000002,133.88369000000003,224.25599000000003,136.76616,233.10345C139.13251000000002,235.69176000000002,145.84115000000003,239.36201,151.0131,238.73661C151.0131,238.73661,151.0131,238.73661,151.0131,238.73661M83.375079,135.98362C77.671739,139.83593,76.17581,145.34415,76.17581,145.34415C76.899518,155.21123,84.194639,158.39864,88.79799,150.31191C89.119558,146.8197,87.31867,139.38779000000002,83.375079,135.98362C83.375079,135.98362,83.375079,135.98362,83.375079,135.98362M62.119954,139.6329C68.928838,140.63661000000002,72.66180800000001,144.95440000000002,72.66180800000001,144.95440000000002C76.28080800000001,154.16233000000003,71.08445900000001,160.19359000000003,63.43410300000001,154.89661C61.632473000000005,151.88777000000002,60.038658000000005,144.40872000000002,62.11995400000001,139.6329C62.11995400000001,139.6329,62.119954,139.6329,62.119954,139.6329M178.10723,192.97128C179.51565,186.23446,176.75189999999998,181.24046,176.75189999999998,181.24046C169.35926999999998,174.66534000000001,161.90496,177.46027,164.23543999999998,186.46887C166.4374,189.19840000000002,172.90651999999997,193.27601,178.10723,192.97128C178.10723,192.97128,178.10723,192.97128,178.10723,192.97128M179.32957,161.55711000000002C173.06076,158.71626000000003,167.58498,160.32689000000002,167.58498,160.32689000000002C159.55856,166.11131000000003,160.66415,173.99522000000002,169.96401,173.68122000000002C173.10734,172.12609000000003,178.49514,166.69948000000002,179.32957,161.55711000000002C179.32957,161.55711000000002,179.32957,161.55711000000002,179.32957,161.55711000000002M54.776771,215.25796C53.368353,208.52115,56.132104999999996,203.52714,56.132104999999996,203.52714C63.524728999999994,196.95202,70.979041,199.74695,68.648562,208.75555C66.446602,211.48509,59.97748,215.5627,54.776771,215.25796C54.776771,215.25796,54.776771,215.25796,54.776771,215.25796M53.554428,183.8438C59.823236,181.00295,65.299028,182.61356999999998,65.299028,182.61356999999998C73.32545,188.39799999999997,72.219852,196.28189999999998,62.91999200000001,195.96791C59.77665600000001,194.41278,54.38886000000001,188.98617,53.55442800000001,183.8438C53.55442800000001,183.8438,53.554428,183.8438,53.554428,183.8438M127.55894,118.79482999999999C120.75006,119.79853999999999,117.01709000000001,124.11632999999999,117.01709000000001,124.11632999999999C113.39809000000001,133.32424999999998,118.59444,139.35553,126.24479000000001,134.05854C128.04642,131.0497,129.64024,123.57065,127.55894,118.79482999999999C127.55894,118.79482999999999,127.55894,118.79482999999999,127.55894,118.79482999999999M101.25718,124.25710999999998C108.06607000000001,125.26081999999998,111.79904,129.57860999999997,111.79904,129.57860999999997C115.41804,138.78653999999997,110.22169000000001,144.81779999999998,102.57133,139.52081999999996C100.7697,136.51197999999997,99.175888,129.03292999999996,101.25718,124.25710999999995C101.25718,124.25710999999995,101.25718,124.25710999999998,101.25718,124.25710999999998" stroke-width="2"></path></svg>