<svg style="overflow: hidden; position: absolute; left: 0px; top: 0px;" height="250" version="1.1" width="250" xmlns="http://www.w3.org/2000/svg" xmlns:xlink="http://www.w3.org/1999/xlink"><desc style="-webkit-tap-highlight-color: rgba(0, 0, 0, 0);">Created with Raphaël 2.2.0</desc><defs style="-webkit-tap-highlight-color: rgba(0, 0, 0, 0);"></defs><path style="-webkit-tap-highlight-color: rgba(0, 0, 0, 0);" fill="#ffffff" stroke="#000000" d="M107.51827,132.6805C107.51827,134.93263,113.36045,152.44917999999998,113.36045,152.44917999999998C113.36045,152.44917999999998,118.03419,153.45012999999997,118.03419,153.45012999999997C119.88829,150.25850999999997,121.46486999999999,146.85298999999998,120.76053999999999,141.68901999999997C120.76053999999999,141.68901999999997,107.51827,132.6805,107.51827,132.6805M96.431967,130.28173999999999C96.431967,132.53386999999998,102.27415,150.05041,102.27415,150.05041C102.27415,150.05041,106.94789,151.05136,106.94789,151.05136C108.80199,147.85985,110.37857,144.45433,109.67424,139.29025C109.67424,139.29025,96.431967,130.28173999999999,96.431967,130.28173999999999" stroke-width="2"></path><path style="-webkit-tap-highlight-color: rgba(0, 0, 0, 0);" fill="#ffffff" stroke="#000000" d="M128.09961,117.44225C137.74278,136.60184,116.40849000000001,149.55271,93.760997,139.42304000000001C85.36524700000001,135.66782,83.703894,127.73681000000002,82.064518,123.67448000000002C79.60837400000001,117.58823000000001,66.22090200000001,88.66542300000002,88.45769700000001,88.74394800000002C110.35104000000001,88.82122800000002,120.55975000000001,102.46163000000001,128.09961,117.44225000000002C128.09961,117.44225000000002,128.09961,117.44225,128.09961,117.44225" stroke-width="2"></path><path style="-webkit-tap-highlight-color: rgba(0, 0, 0, 0);" fill="#636363" stroke="#000000" d="M113.19388,152.74967C109.75447,152.83577,107.69049,156.45637000000002,105.20957,159.00558C108.98293,157.02,112.18841,154.73214000000002,113.38862,156.00274000000002C112.22734,161.07863,113.1083,162.65552000000002,113.38862,165.26149C113.38862,165.26149,116.11497,156.00274000000002,116.11497,156.00274000000002C120.19977,158.06849000000003,120.96436,161.53116000000003,123.32032,164.01030000000003C122.47771999999999,161.50073000000003,121.66530999999999,157.43329000000003,119.63699,155.71016000000003C120.24659,154.73104000000004,122.84109,154.80260000000004,123.21911,154.86086000000003C123.00563,154.15359000000004,119.02424,153.81607000000002,117.86762,153.50037000000003C117.86762,153.50037000000003,113.19388,152.74967,113.19388,152.74967M102.10758,150.351C98.668177,150.4371,96.604187,154.0576,94.123267,156.60691C97.896637,154.62123,101.10211,152.33337,102.30232,153.60407C101.14103999999999,158.67997,102.02201,160.25676,102.30232,162.86282C102.30232,162.86282,105.02866999999999,153.60407,105.02866999999999,153.60407C109.11346999999999,155.66982000000002,109.87805999999999,159.13240000000002,112.23402999999999,161.61164C111.39142,159.10207,110.57901999999999,155.03452,108.55068999999999,153.3114C109.16028999999999,152.33237,111.75478999999999,152.40394,112.13282,152.46219C111.91933999999999,151.75493,107.93795,151.41741,106.78133,151.10171C106.78133,151.10171,102.10758,150.351,102.10758,150.351" stroke-width="2"></path><path style="-webkit-tap-highlight-color: rgba(0, 0, 0, 0);" fill="#ffffff" stroke="#000000" d="M99.167577,91.540418C96.05364399999999,100.90661,105.69740999999999,109.67459,110.47026,116.70659C114.81733,122.98434,122.37863,139.44507000000002,137.40861,146.88251C131.76706000000001,133.80752999999999,152.05307000000002,114.15728999999999,136.59013000000002,90.06057999999999C128.76162000000002,77.86100499999999,107.07638000000001,86.70861599999999,99.16757700000002,91.54041799999999C99.16757700000002,91.54041799999999,99.167577,91.540418,99.167577,91.540418" stroke-width="2"></path><path style="-webkit-tap-highlight-color: rgba(0, 0, 0, 0);" fill="#ffffff" stroke="#000000" d="M167.72206,70.193866C167.72206,81.856555,136.70838,91.311028,98.45108,91.311028C60.193771000000005,91.311028,29.180097000000004,81.85655499999999,29.180097000000004,70.19386599999999C29.180097000000004,58.53117899999999,60.193771000000005,49.07670299999998,98.45108,49.07670299999998C136.70838,49.07670299999998,167.72206,58.53117899999998,167.72206,70.19386599999999C167.72206,70.19386599999999,167.72206,70.193866,167.72206,70.193866" stroke-width="2"></path><path style="-webkit-tap-highlight-color: rgba(0, 0, 0, 0);" fill="#ffffff" stroke="#000000" d="M57.892062,61.991309C45.050071,62.046309,38.229176,76.457082,45.749114000000006,80.290794C50.57823500000001,82.03692600000001,73.91127,80.290794,73.91127,80.290794C82.512657,79.81127500000001,77.17987000000001,70.229453,69.916348,65.86552400000001C65.554088,63.08712700000001,61.487815999999995,61.975913000000006,57.892061999999996,61.99130900000001C57.892061999999996,61.99130900000001,57.892062,61.991309,57.892062,61.991309" stroke-width="2"></path><path style="-webkit-tap-highlight-color: rgba(0, 0, 0, 0);" fill="#000000" stroke="#000000" d="M61.338962,55.935201C48.496970000000005,55.990190999999996,38.229176,76.457082,45.749114000000006,80.290794C50.57823500000001,82.03692600000001,73.91127,80.290794,73.91127,80.290794C82.512657,79.81127500000001,84.648144,65.10505500000001,77.38462200000001,60.741125000000004C73.022362,57.962728000000006,64.93471400000001,55.919803,61.33896200000001,55.935201000000006C61.33896200000001,55.935201000000006,61.338962,55.935201,61.338962,55.935201M62.717611000000005,70.81133C65.196889,70.81133,67.187161,72.439386,67.187161,74.438255C67.187161,76.437125,65.196889,78.065181,62.717611000000005,78.065181C60.238314,78.065181,58.208493000000004,76.437125,58.208493000000004,74.438255C58.208493000000004,72.439386,60.238314,70.81133,62.717611000000005,70.81133C62.717611000000005,70.81133,62.717611000000005,70.81133,62.717611000000005,70.81133" stroke-width="2"></path><path style="-webkit-tap-highlight-color: rgba(0, 0, 0, 0);" fill="#ffffff" stroke="#000000" d="M111.17074,65.659449C107.07804,65.78788,102.91242,66.395787,99.22556,67.80263199999999C91.96207100000001,72.16656199999998,86.589716,81.70716599999999,95.191106,82.18668499999998C95.191106,82.18668499999998,105.27365,84.79833499999998,110.10281,83.05220199999998C142.59981,78.67128599999998,140.97706,69.27756499999998,128.17879,67.10197799999997C124.58035,66.49027999999997,117.99194,65.44540399999997,111.17074,65.65944899999998C111.17074,65.65944899999998,111.17074,65.659449,111.17074,65.659449" stroke-width="2"></path><path style="-webkit-tap-highlight-color: rgba(0, 0, 0, 0);" fill="#000000" stroke="#000000" d="M110.59626,58.205777C106.50356000000001,58.334208999999994,100.04,59.873825999999994,96.35313500000001,61.280668999999996C89.08964900000001,65.644598,86.58971600000001,81.707166,95.191106,82.186685C95.191106,82.186685,105.27365,84.798335,110.10281,83.052202C142.59981,78.671286,139.25362,67.41414599999999,128.17879,61.511720999999994C125.10631,59.87421799999999,117.41747,57.991732999999996,110.59626,58.205777C110.59626,58.205777,110.59626,58.205777,110.59626,58.205777M106.26609,72.789653C108.74538000000001,72.789653,110.73565,74.41770700000001,110.73565,76.416579C110.73565,78.415447,108.74538000000001,80.043503,106.26609,80.043503C103.78681,80.043503,101.75699,78.415447,101.75699,76.416579C101.75699,74.417707,103.78681,72.789653,106.26609,72.789653C106.26609,72.789653,106.26609,72.789653,106.26609,72.789653" stroke-width="2"></path><path style="-webkit-tap-highlight-color: rgba(0, 0, 0, 0);" fill="#ffff00" stroke="#000000" d="M64.593872,84.61684C64.691072,89.70492,72.566972,96.40473,77.423452,99.08941999999999C84.134022,97.98297,95.243782,91.24757,98.29001,87.11261999999999C95.584942,85.9293,84.423992,82.49951999999999,82.441942,80.12106C78.640982,82.25532,66.895022,84.34194,64.593872,84.61684C64.593872,84.61684,64.593872,84.61684,64.593872,84.61684" stroke-width="2"></path><path style="-webkit-tap-highlight-color: rgba(0, 0, 0, 0);" fill="#ffffff" stroke="#000000" d="M81.715882,57.661751C41.984611,15.063295,70.217425,-18.939134,94.62058,54.479771C70.894986,-27.291021999999998,104.28452,7.8259536999999995,105.58074,52.888781C98.82829000000001,-7.462958499999999,126.66789,-19.345751,116.54089,52.358451C127.76156,-28.891786999999994,148.45222,6.860182100000003,128.91526000000002,52.712004C150.26441000000003,-20.781894,167.21319000000003,0.8915730000000011,141.81996,55.893984C168.11092000000002,-15.99673,199.47892000000002,-0.7446782999999968,152.42656,58.368858C237.51427,-41.797341,205.02053999999998,44.556419000000005,162.85639,64.202489C266.52291,6.6031616,216.1901,63.793432,166.39192,72.864547C206.05158,59.261109000000005,312.97062,88.184295,161.9725,79.228508C238.425,89.35424400000001,249.89400999999998,134.15256,152.78011,83.47114900000001C217.67804,119.09100000000001,224.11693000000002,169.80599,142.52707,86.65313C178.13926,118.59041,173.67405000000002,174.86516,132.80434,102.91659C129.43961,98.799077,126.82415999999999,93.932279,122.18203,91.092171C177.88792999999998,82.709837,172.40260999999998,64.39617999999999,152.49701,58.41343199999999C118.8476,48.299896,111.3693,52.55371,81.715882,57.661751C81.715882,57.661751,81.715882,57.661751,81.715882,57.661751" stroke-width="2"></path></svg>