<svg style="overflow: hidden; position: absolute; left: 0px; top: 0px;" height="250" version="1.1" width="250" xmlns="http://www.w3.org/2000/svg" xmlns:xlink="http://www.w3.org/1999/xlink"><desc style="-webkit-tap-highlight-color: rgba(0, 0, 0, 0);">Created with Raphaël 2.2.0</desc><defs style="-webkit-tap-highlight-color: rgba(0, 0, 0, 0);"></defs><path style="-webkit-tap-highlight-color: rgba(0, 0, 0, 0);" fill="#dda0dd" stroke="#000000" d="M67.855339,97.42888C66.866154,105.0399,64.187902,108.43097,51.000228,110.71753000000001C54.901453000000004,116.54231000000001,59.736954,120.11564000000001,40.281969000000004,131.04156C49.23758600000001,139.26041,55.54965,143.17675,50.737608,150.40923C64.570875,152.02912,62.356208,156.71432000000001,65.294424,169.35024C68.462771,141.05579,84.619089,139.79713,88.847738,138.65479000000002C92.47122900000001,146.27257000000003,201.82421,174.64717000000002,238.85539,130.57357000000002C238.02635,129.47753000000003,220.57899,132.28983000000002,219.74745000000001,131.23217000000002C219.1062,130.41654000000003,238.19602,124.64597000000002,237.26706000000001,124.22313000000003C197.56654000000003,106.15238000000002,117.07336000000001,104.70751000000003,88.84773700000002,126.02788000000002C68.36248800000003,122.57873000000002,71.69110600000002,114.91583000000003,67.85533900000001,97.42888000000002C67.85533900000001,97.42888000000002,67.855339,97.42888,67.855339,97.42888" stroke-width="2"></path><path style="-webkit-tap-highlight-color: rgba(0, 0, 0, 0);" fill="none" stroke="#000000" d="M216.12695,132.08879C201.83334,155.94758,181.37589,176.19307999999998,204.5102,221.99237M212.59142,131.07864C182.06709,167.2245,171.59769,199.82642,187.84269,242.19541M210.57111,128.04818C178.28437,151.39374,158.96552,188.80038000000002,171.68024,235.12435" stroke-width="2"></path><path style="-webkit-tap-highlight-color: rgba(0, 0, 0, 0);" fill="#ff8c00" stroke="#000000" d="M197.63909,113.26346C190.89139,108.19403,184.02016,105.31218,183.87132,92.324116C152.17944,118.07002,123.38644,92.572086,90.75,124.5C112.77265,112.4333,151.78364,106.58974,197.63909,113.26346C197.63909,113.26346,197.63909,113.26346,197.63909,113.26346" stroke-width="2"></path><path style="-webkit-tap-highlight-color: rgba(0, 0, 0, 0);" fill="#ffffff" stroke="#000000" d="M136.25,112C139.23046,123.80363,130.15866,139.94121,122.5,149.75C122.5,149.75,135.5,152.25,135.5,152.25C140.58189,141.78856,150.9684,126.9106,144.25,111.25C144.25,111.25,136.25,112,136.25,112M94.25,122.75C97.49641,130.35524,97.3147,135.12285,92,140.75C92,140.75,104,145.25,104,145.25C110.59703999999999,136.40455,108.89269,126.25749,105.5,118.25C105.5,118.25,94.25,122.75,94.25,122.75M42.5,133.5C53.234168,132.47481,65.39406,124.46475,69.75,106.5C70.07184,112.0994,72.75719,117.23809,74,119C68.493167,134.7044,57.619558,144.07326,52.75,147C52.296818,142.2723,47.979819,137.93318,42.5,133.5C42.5,133.5,42.5,133.5,42.5,133.5" stroke-width="2"></path><path style="-webkit-tap-highlight-color: rgba(0, 0, 0, 0);" fill="#ff8c00" stroke="#000000" d="M151.5,135C149.12991,140.27411,148.31883,144.40731,147,149C143.6018,139.43818,141.933,139.87712,136.22792,137.77297C141.91341,135.86345999999998,142.85161000000002,135.72284,144.5,133.5C144.5,133.5,151.5,135,151.5,135" stroke-width="2"></path><path style="-webkit-tap-highlight-color: rgba(0, 0, 0, 0);" fill="#ffffff" stroke="#000000" d="M187.50513,130.44158C187.50513,137.97312,181.51267,144.07863999999998,174.12061,144.07863999999998C166.72854,144.07863999999998,160.73608,137.97311999999997,160.73608,130.44158C160.73608,122.91003999999998,166.72853999999998,116.80451999999998,174.12061,116.80451999999998C181.51266999999999,116.80451999999998,187.50513,122.91003999999998,187.50513,130.44158C187.50513,130.44158,187.50513,130.44158,187.50513,130.44158" stroke-width="2"></path><path style="-webkit-tap-highlight-color: rgba(0, 0, 0, 0);" fill="#000000" stroke="#000000" d="M185.9899,132.71442C185.9899,137.59597,181.69342,141.55325,176.39345,141.55325C171.09348,141.55325,166.797,137.59597,166.797,132.71442C166.797,127.83285999999998,171.09348,123.87557999999999,176.39345,123.87557999999999C181.69342,123.87557999999999,185.9899,127.83285999999998,185.9899,132.71442C185.9899,132.71442,185.9899,132.71442,185.9899,132.71442" stroke-width="2"></path></svg>