<svg style="overflow: hidden; position: absolute; left: 0px; top: 0px;" height="250" version="1.1" width="250" xmlns="http://www.w3.org/2000/svg" xmlns:xlink="http://www.w3.org/1999/xlink"><desc style="-webkit-tap-highlight-color: rgba(0, 0, 0, 0);">Created with Raphaël 2.2.0</desc><defs style="-webkit-tap-highlight-color: rgba(0, 0, 0, 0);"></defs><path style="-webkit-tap-highlight-color: rgba(0, 0, 0, 0);" fill="none" stroke="#000000" d="M101.31375,193.06422C98.731567,190.48204,96.149385,187.03912,92.706476,186.17838C85.82064799999999,183.59619,78.074091,186.17838,73.770449,191.34275C70.327536,196.50713,69.466807,204.25369,73.770449,209.41806C76.35263499999999,212.00025,80.656277,213.7217,84.099191,212.86096C87.542105,212.00025,90.12428600000001,207.69659000000001,89.263563,204.25369C89.263563,201.6715,86.681377,199.08931,84.099191,199.95005C82.377734,199.95005,80.656277,202.53224,81.51700600000001,204.25369C81.51700600000001,205.11441,84.099191,205.97514,84.099191,204.25369M105.53132000000001,181.61653C105.53132000000001,179.89508,104.67060000000001,177.31289,103.80987,175.59142C100.36697000000001,168.70559,95.202589,162.6805,88.316761,160.95904C83.15239,159.23757999999998,77.12729,160.09832,72.823648,162.6805C69.380734,164.40195,65.937821,168.70559,65.937821,173.00924C65.937821,177.31289,70.241463,181.61653,74.545105,180.75579000000002C77.98802,180.75579000000002,81.43093300000001,176.45215000000002,80.570205,173.00924C80.570205,169.56633,76.26656200000001,166.98414,72.823648,168.70559C70.24146300000001,169.56633,69.380734,173.00924,71.102191,175.59142C72.823648,177.31289,75.405834,177.31289,76.26656200000001,174.7307C77.12729,173.00924,75.40583400000001,171.28778000000003,73.68437600000001,171.28778000000003C71.96292000000001,171.28778000000003,71.96292000000001,174.7307,73.68437600000001,173.86997000000002M105.53132000000002,181.61653C104.67060000000002,168.70559,106.39206000000003,151.49102000000002,116.72080000000003,143.74448C120.16371000000002,141.16229,126.18882000000002,138.58011000000002,131.35319,139.44082C138.23901,141.16229,144.2641,146.32667,142.54265,154.07321C141.68192000000002,160.09832,135.65683,164.40195,129.63172,163.54121999999998C125.32808,162.6805,121.88518,158.37686,122.74589,154.07321C123.60663000000001,150.63029999999998,127.04954000000001,148.04811999999998,130.49245,148.90884C133.07464,149.76957,134.79609,151.49102,133.93537999999998,154.07321C133.07464,155.79468,132.21390999999997,156.65538999999998,130.49245,156.65538999999998C129.63172,156.65538999999998,128.771,154.93393999999998,129.63172,154.07321C129.63172,153.21249,130.49245,153.21249,131.35319,153.21249M113.36395000000002,186.43661C117.66760000000002,179.55077,124.55344000000002,172.66494,133.16071000000002,170.08276C147.7931,164.91839000000002,165.00767000000002,171.80423000000002,171.03276000000002,185.57588C174.47568,192.4617,173.61495000000002,201.92972,169.31131000000002,207.95483000000002C166.72912000000002,212.25846,160.70403000000002,213.97992000000002,155.53966000000003,211.39773000000002C150.37528000000003,209.67628000000002,146.07165000000003,203.65117000000004,147.79310000000004,198.48681000000002C148.65383000000003,194.18316000000002,154.67892000000003,190.74025000000003,158.98256000000003,193.32244000000003C162.42548000000002,195.04389000000003,165.00767000000005,200.20826000000002,161.56475000000003,202.79045000000002C158.98256000000003,205.37264000000002,154.67892000000003,203.65117,154.67892000000003,200.20826000000002C153.81820000000005,196.76534000000004,159.84330000000003,197.62608000000003,158.12185000000002,200.20826000000002M115.77400000000003,202.70438000000001C134.71002000000004,186.35053000000002,150.20314000000002,200.12219000000002,150.20314000000002,219.91895000000002C148.48168,229.38696000000002,140.73513000000003,237.13351000000003,131.26712000000003,235.41205000000002C124.38128000000003,234.55132000000003,118.35618000000004,226.80478000000002,120.07763000000003,219.05822000000003C120.93837000000003,213.03311000000002,126.96346000000003,207.86875000000003,132.12783000000002,209.59021000000004C136.43148000000002,210.45092000000005,139.87439,214.75458000000003,139.01366000000002,219.91895000000005C138.15294000000003,223.36186000000006,134.71002000000001,225.94404000000006,132.12783000000002,225.08331000000004C130.40638,224.22259000000005,128.68493,222.50112000000004,129.54565000000002,219.91895000000005C130.40638,219.05822000000006,131.26712000000003,217.33677000000006,132.98857,218.19748000000004" stroke-width="2"></path><path style="-webkit-tap-highlight-color: rgba(0, 0, 0, 0);" fill="#ffffff" stroke="#000000" d="M94.46043,246.30024C94.46043,246.30024,124.91546,246.67622,124.91546,246.67622C115.24987,239.04307,112.28083,225.88085,115.51575,202.30964C111.5818,203.57927,109.13808999999999,204.12457,113.25981999999999,186.14216C106.42399999999999,199.31797999999998,106.04673999999999,186.79603,104.98808999999999,177.49444C106.42238999999998,189.71832,104.50382999999998,193.41518,101.55857999999999,192.97446C105.81306,203.76676,106.49439,226.51612,94.46042999999999,246.30024C94.46042999999999,246.30024,94.46043,246.30024,94.46043,246.30024" stroke-width="2"></path></svg>