<svg style="overflow: hidden; position: absolute; left: 0px; top: 0px;" height="250" version="1.1" width="250" xmlns="http://www.w3.org/2000/svg" xmlns:xlink="http://www.w3.org/1999/xlink"><desc style="-webkit-tap-highlight-color: rgba(0, 0, 0, 0);">Created with Raphaël 2.2.0</desc><defs style="-webkit-tap-highlight-color: rgba(0, 0, 0, 0);"></defs><path style="-webkit-tap-highlight-color: rgba(0, 0, 0, 0);" fill="#ffffff" stroke="#000000" d="M114.75328,118.77192C92.113193,145.59329,79.229593,181.72805,99.393737,231.97479C99.393737,231.97479,110.7473,231.97479,110.7473,231.97479C88.961151,194.51396,96.40877599999999,151.23035000000002,120.96534,131.80222000000003C120.43451,131.81912000000003,114.56529,120.31044000000003,114.75328,118.77192000000004C114.75328,118.77192000000004,114.75328,118.77192,114.75328,118.77192" stroke-width="2"></path><path style="-webkit-tap-highlight-color: rgba(0, 0, 0, 0);" fill="#914c91" stroke="#000000" d="M123.58303,105.36281C117.71556,90.820741,131.19294,84.32463,135.01246,75.125835C135.35152,84.873787,146.11211,94.913303,133.84159,107.99305999999999C146.94394,94.32778399999998,156.13982,105.39037999999998,167.19407,104.99009999999998C157.22934,109.85245999999998,152.85207,126.64718999999998,135.65175000000002,116.05752999999999C151.36249,123.90570999999998,147.54074000000003,133.84518999999997,153.00603,142.79031999999998C144.72643000000002,136.29808999999997,132.38594,140.84523,128.27091000000001,122.48438999999998C132.67398000000003,140.32163999999997,118.66240000000002,143.04786,113.73522000000001,153.22872999999998C114.80503000000002,142.17364999999998,102.52734000000001,132.52016999999998,120.31272000000001,119.70981999999998C108.10919000000001,132.56664999999998,96.89979200000002,120.83972999999997,85.20410100000001,121.13843999999997C95.757163,117.32839999999997,97.55880300000001,104.53817999999998,118.19769000000001,111.07762999999997C98.02228500000001,107.89272999999997,103.07674,92.41057899999997,95.76807000000001,82.95432099999996C105.24874000000001,90.07493199999996,120.16546000000001,88.12197299999997,123.58303000000001,105.36280999999997C123.58303000000001,105.36280999999997,123.58303,105.36281,123.58303,105.36281" stroke-width="2"></path><path style="-webkit-tap-highlight-color: rgba(0, 0, 0, 0);" fill="#dda0dd" stroke="#000000" d="M119.50105,106.54221C107.33968,96.642714,116.00329,84.44512399999999,114.90485000000001,74.54562999999999C119.90989,82.91743399999999,134.18112000000002,86.51106199999998,129.75410000000002,103.89056C134.62669000000002,85.59660299999999,148.02196000000004,90.841804,157.50803000000002,85.152231C151.13110000000003,94.222691,155.40991000000002,111.04278,135.23417,110.07774C152.78149000000002,109.36171,154.23572000000001,119.91085000000001,163.34167000000002,125.10377000000001C152.95616,123.41795,144.34671000000003,133.35987,131.87541000000002,119.27013000000001C144.34604000000002,132.76227,133.39386000000002,141.91686,133.99673,153.21127C129.59401000000003,143.01444,114.18082000000001,140.49158,123.56692000000001,120.68436000000001C119.09088000000001,137.83631000000003,103.61167,132.98192,93.51488200000001,138.89236C100.91522000000002,130.45918,96.31525400000001,118.38955,117.54569000000001,114.14732C98.34130200000001,121.10302999999999,95.289411,105.1052,84.322484,100.35504999999999C96.06318900000001,102.01098999999999,108.18141,93.09632299999998,119.50104999999999,106.54221C119.50104999999999,106.54221,119.50105,106.54221,119.50105,106.54221" stroke-width="2"></path><path style="-webkit-tap-highlight-color: rgba(0, 0, 0, 0);" fill="#ffffff" stroke="#000000" d="M132.2428,105.5804C135.99316,108.75082,136.46329,114.36121,133.29287,118.11156C130.12246,121.86192,124.51204999999999,122.33206,120.76169999999999,119.16163999999999C117.01133999999999,115.99122,116.54120999999999,110.38082999999999,119.71162999999999,106.63045999999999C122.88204999999999,102.88010999999999,128.49245,102.40997999999999,132.2428,105.58039999999998C132.2428,105.58039999999998,132.2428,105.5804,132.2428,105.5804" stroke-width="2"></path><path style="-webkit-tap-highlight-color: rgba(0, 0, 0, 0);" fill="#ffffff" stroke="#000000" d="M99.244236,104.07527C99.244236,106.40610000000001,97.673996,106.77236,95.783315,106.7407C93.718459,106.7061,92.46285,105.6126,92.499182,103.98688C92.539392,102.1875,94.245913,101.28326,95.783315,101.32147C97.49419400000001,101.36397000000001,99.244236,102.1864,99.244236,104.07527C99.244236,104.07527,99.244236,104.07527,99.244236,104.07527M108.26781,106.01199C107.81582999999999,107.6679,106.15234,109.18708,104.67332999999999,108.81097C103.69557999999999,108.56232,101.01256,107.72085,101.07884,105.03972C101.13274,102.86093,102.91262,101.02622000000001,104.58494,100.9149C106.37502,100.79575,108.87738,103.77871,108.26781,106.01199C108.26781,106.01199,108.26781,106.01199,108.26781,106.01199M114.5906,110.76832C114.85576999999999,113.05256,113.19242,114.13704,111.35262999999999,114.00629C109.51141999999999,113.87544000000001,108.28408999999999,113.22985000000001,108.11465999999999,110.76832C107.95759999999999,108.48653,110.92452999999999,108.06067,111.88295999999998,108.06067C112.84138999999999,108.06067,114.31700999999998,108.4115,114.59059999999998,110.76832C114.59059999999998,110.76832,114.5906,110.76832,114.5906,110.76832M107.01861,130.61862C106.43566,132.9474,104.40968,134.38661,103.01263,133.91746999999998C101.49956,133.40936999999997,100.23177,131.04486999999997,100.59764,129.55795999999998C100.8982,128.33648999999997,102.83838,126.64982999999998,104.25007,126.70100999999998C106.09494,126.76790999999999,107.4618,128.84814999999998,107.01861,130.61862C107.01861,130.61862,107.01861,130.61862,107.01861,130.61862M116.56466999999999,127.37178999999999C116.93844999999999,129.24836,114.7123,131.32007,112.65097999999999,131.19707C110.91837999999998,131.09369,108.68431,129.84351,108.91409999999999,127.37178999999999C109.12947999999999,125.05505,111.08646999999999,124.25304999999999,112.65097999999999,124.25361C114.28921999999999,124.2542,116.08072999999999,124.94228,116.56466999999999,127.37178999999999C116.56466999999999,127.37178999999999,116.56466999999999,127.37178999999999,116.56466999999999,127.37178999999999M116.92218,118.77252999999999C117.55769,120.84309999999999,115.63499,121.42181,114.56806999999999,121.48017999999999C112.92805999999999,121.56987999999998,111.19953999999998,120.62482999999999,111.50685999999999,118.94931C111.7914,117.39804,113.60963999999998,116.6836,114.56806999999999,116.6836C115.52649,116.6836,116.64095999999999,117.85629,116.92218,118.77253C116.92218,118.77253,116.92218,118.77252999999999,116.92218,118.77252999999999M132.59262999999999,139.87398C132.59262999999999,141.16867,131.54305,142.21824999999998,130.24833999999998,142.21824999999998C128.95363999999998,142.21824999999998,127.90405999999999,141.16867,127.90405999999999,139.87398C127.90405999999999,138.57925999999998,128.95363999999998,137.52967999999998,130.24833999999998,137.52967999999998C131.54305,137.52967999999998,132.59262999999999,138.57925999999998,132.59262999999999,139.87398C132.59262999999999,139.87398,132.59262999999999,139.87398,132.59262999999999,139.87398M131.58103999999997,133.07094999999998C131.47576999999998,136.33666999999997,128.63543999999996,136.46228,127.53871999999997,136.49453999999997C126.35719999999996,136.52933999999996,123.69140999999998,135.63128999999998,123.84993999999998,133.15932999999998C123.92793999999998,131.94359999999998,124.63192999999997,129.67031999999998,127.53871999999997,129.82412C130.68302999999997,129.99049,131.61801999999997,131.92396,131.58103999999997,133.07094999999998C131.58103999999997,133.07094999999998,131.58103999999997,133.07094999999998,131.58103999999997,133.07094999999998M134.51552999999998,125.63348999999998C134.59472999999997,126.74223999999998,132.79507999999998,128.79721999999998,131.05757,128.73791999999997C129.84763,128.69661999999997,127.41717,127.14735999999998,127.77638999999999,125.98704999999997C128.58147,123.38652999999996,129.40699999999998,123.51126999999997,131.05757,123.50135999999996C132.57545,123.49235999999996,134.41004,124.15722999999996,134.51553,125.63348999999997C134.51553,125.63348999999997,134.51552999999998,125.63348999999998,134.51552999999998,125.63348999999998M155.38532999999998,121.97222999999998C155.38532999999998,122.99789999999999,154.55384999999998,123.82938999999998,153.52818,123.82938999999998C152.50249,123.82938999999998,151.67101,122.99789999999997,151.67101,121.97222999999998C151.67101,120.94653999999998,152.50249,120.11505999999999,153.52818,120.11505999999999C154.55384999999998,120.11505999999999,155.38532999999998,120.94653999999998,155.38532999999998,121.97222999999998C155.38532999999998,121.97222999999998,155.38532999999998,121.97222999999998,155.38532999999998,121.97222999999998M149.08997,121.46839999999999C149.28157,122.74904,146.91006,124.24019999999999,145.31280999999998,124.36165999999999C143.36628,124.50967999999999,139.70728,123.15409999999999,140.65177999999997,120.76128999999999C141.27537999999998,119.18146999999999,142.91291999999999,117.96741999999999,144.87086999999997,118.13317999999998C146.62636999999998,118.28180999999998,148.84250999999998,119.81446999999999,149.08996999999997,121.46839999999999C149.08996999999997,121.46839999999999,149.08997,121.46839999999999,149.08997,121.46839999999999M144.21674,113.84236999999999C144.04516999999998,116.41591999999999,142.34330999999997,116.18294999999999,141.42070999999999,116.28486999999998C140.35611999999998,116.40245999999999,137.72849,115.93971999999998,138.09435,113.75397999999998C138.29577,112.55062999999998,139.27517999999998,111.35948999999998,141.15555,111.48826999999999C143.38848000000002,111.64119999999998,144.2819,112.86498999999999,144.21674000000002,113.84236999999999C144.21674000000002,113.84236999999999,144.21674,113.84236999999999,144.21674,113.84236999999999M152.73951,91.58776099999999C153.12905,92.77925599999999,152.23629,95.27404399999999,149.04782,95.48375699999998C146.82093,95.63022499999998,144.63582,94.95293099999998,144.47221,92.38325599999999C144.35889999999998,90.60369399999999,146.29209,89.80234199999998,148.34071,89.63632499999999C149.74095,89.52285299999998,152.38943,90.51697999999999,152.73951,91.58776099999999C152.73951,91.58776099999999,152.73951,91.58776099999999,152.73951,91.58776099999999M147.19848,100.17331999999999C147.19848,101.6698,145.98533999999998,102.88295999999998,144.48884999999999,102.88295999999998C142.99237,102.88295999999998,141.77922999999998,101.66979999999998,141.77922999999998,100.17331999999999C141.77922999999998,98.67683499999998,142.99237,97.463697,144.48884999999999,97.463697C145.98533999999998,97.463697,147.19848,98.676835,147.19848,100.17331999999999C147.19848,100.17331999999999,147.19848,100.17331999999999,147.19848,100.17331999999999M139.85036,103.25321999999998C139.87326,105.28399999999999,137.72611,106.49660999999999,136.5122,106.41459999999998C135.31217,106.33349999999997,132.37957,105.40414999999997,132.99727000000001,102.89966999999997C133.37737,101.35850999999997,134.16735000000003,99.31462999999997,136.5122,99.64989999999997C138.33921,99.91112999999997,139.82599000000002,101.08959999999998,139.85036,103.25321999999997C139.85036,103.25321999999997,139.85036,103.25321999999998,139.85036,103.25321999999998M121.24338999999999,94.46834199999998C121.21919,96.20950899999998,120.30369999999999,97.33803199999998,118.54458,97.34392799999998C117.15695,97.34862799999998,115.95338,96.32671399999998,115.75738,94.37995399999998C115.55756,92.39525599999999,116.40795,91.14325099999998,118.45618999999999,91.23920299999999C120.94251999999999,91.35567699999999,121.26311999999999,93.05108399999999,121.24338999999999,94.46834199999999C121.24338999999999,94.46834199999999,121.24338999999999,94.46834199999998,121.24338999999999,94.46834199999998M125.38394999999998,98.30445499999998C125.38394999999998,99.27967999999997,124.59335999999999,100.07026999999998,123.61810999999999,100.07026999999998C122.64287999999999,100.07026999999998,121.85228999999998,99.27967999999998,121.85228999999998,98.30445499999998C121.85228999999998,97.32920499999997,122.64287999999998,96.53861499999998,123.61810999999999,96.53861499999998C124.59335999999999,96.53861499999998,125.38394999999998,97.32920499999997,125.38394999999998,98.30445499999998C125.38394999999998,98.30445499999998,125.38394999999998,98.30445499999998,125.38394999999998,98.30445499999998M123.4472,86.363047C123.82061999999999,87.92845899999999,122.50667999999999,89.81041599999999,121.1815,89.872085C119.94247,89.929745,116.88088,89.392732,116.79445,86.451436C116.73275,84.352545,118.54069,82.85318,120.47439,83.030787C123.20778,83.281844,123.18921,85.281549,123.4472,86.36304700000001C123.4472,86.36304700000001,123.4472,86.363047,123.4472,86.363047" stroke-width="2"></path></svg>