<svg style="overflow: hidden; position: absolute; left: 0px; top: 0px;" height="250" version="1.1" width="250" xmlns="http://www.w3.org/2000/svg" xmlns:xlink="http://www.w3.org/1999/xlink"><desc style="-webkit-tap-highlight-color: rgba(0, 0, 0, 0);">Created with Raphaël 2.2.0</desc><defs style="-webkit-tap-highlight-color: rgba(0, 0, 0, 0);"></defs><path style="-webkit-tap-highlight-color: rgba(0, 0, 0, 0);" fill="#dda0dd" stroke="#000000" d="M114.75328,118.77192C92.113193,145.59329,79.229593,181.72805,99.393737,231.97479C99.393737,231.97479,110.7473,231.97479,110.7473,231.97479C88.961151,194.51396,96.40877599999999,151.23035000000002,120.96534,131.80222000000003C120.43451,131.81912000000003,114.56529,120.31044000000003,114.75328,118.77192000000004C114.75328,118.77192000000004,114.75328,118.77192,114.75328,118.77192" stroke-width="2"></path><path style="-webkit-tap-highlight-color: rgba(0, 0, 0, 0);" fill="#b36200" stroke="#000000" d="M123.58303,105.36281C117.71556,90.820741,131.19294,84.32463,135.01246,75.125835C135.35152,84.873787,146.11211,94.913303,133.84159,107.99305999999999C146.94394,94.32778399999998,156.13982,105.39037999999998,167.19407,104.99009999999998C157.22934,109.85245999999998,152.85207,126.64718999999998,135.65175000000002,116.05752999999999C151.36249,123.90570999999998,147.54074000000003,133.84518999999997,153.00603,142.79031999999998C144.72643000000002,136.29808999999997,132.38594,140.84523,128.27091000000001,122.48438999999998C132.67398000000003,140.32163999999997,118.66240000000002,143.04786,113.73522000000001,153.22872999999998C114.80503000000002,142.17364999999998,102.52734000000001,132.52016999999998,120.31272000000001,119.70981999999998C108.10919000000001,132.56664999999998,96.89979200000002,120.83972999999997,85.20410100000001,121.13843999999997C95.757163,117.32839999999997,97.55880300000001,104.53817999999998,118.19769000000001,111.07762999999997C98.02228500000001,107.89272999999997,103.07674,92.41057899999997,95.76807000000001,82.95432099999996C105.24874000000001,90.07493199999996,120.16546000000001,88.12197299999997,123.58303000000001,105.36280999999997C123.58303000000001,105.36280999999997,123.58303,105.36281,123.58303,105.36281" stroke-width="2"></path><path style="-webkit-tap-highlight-color: rgba(0, 0, 0, 0);" fill="#ff8c00" stroke="#000000" d="M119.50105,106.54221C107.33968,96.642714,116.00329,84.44512399999999,114.90485000000001,74.54562999999999C119.90989,82.91743399999999,134.18112000000002,86.51106199999998,129.75410000000002,103.89056C134.62669000000002,85.59660299999999,148.02196000000004,90.841804,157.50803000000002,85.152231C151.13110000000003,94.222691,155.40991000000002,111.04278,135.23417,110.07774C152.78149000000002,109.36171,154.23572000000001,119.91085000000001,163.34167000000002,125.10377000000001C152.95616,123.41795,144.34671000000003,133.35987,131.87541000000002,119.27013000000001C144.34604000000002,132.76227,133.39386000000002,141.91686,133.99673,153.21127C129.59401000000003,143.01444,114.18082000000001,140.49158,123.56692000000001,120.68436000000001C119.09088000000001,137.83631000000003,103.61167,132.98192,93.51488200000001,138.89236C100.91522000000002,130.45918,96.31525400000001,118.38955,117.54569000000001,114.14732C98.34130200000001,121.10302999999999,95.289411,105.1052,84.322484,100.35504999999999C96.06318900000001,102.01098999999999,108.18141,93.09632299999998,119.50104999999999,106.54221C119.50104999999999,106.54221,119.50105,106.54221,119.50105,106.54221" stroke-width="2"></path><path style="-webkit-tap-highlight-color: rgba(0, 0, 0, 0);" fill="#ffffff" stroke="#000000" d="M132.2428,105.5804C135.99316,108.75082,136.46329,114.36121,133.29287,118.11156C130.12246,121.86192,124.51204999999999,122.33206,120.76169999999999,119.16163999999999C117.01133999999999,115.99122,116.54120999999999,110.38082999999999,119.71162999999999,106.63045999999999C122.88204999999999,102.88010999999999,128.49245,102.40997999999999,132.2428,105.58039999999998C132.2428,105.58039999999998,132.2428,105.5804,132.2428,105.5804" stroke-width="2"></path><path style="-webkit-tap-highlight-color: rgba(0, 0, 0, 0);" fill="#ff8c00" stroke="#000000" d="M99.244236,104.07527C99.244236,106.40610000000001,97.673996,106.77236,95.783315,106.7407C93.718459,106.7061,92.46285,105.6126,92.499182,103.98688C92.539392,102.1875,94.245913,101.28326,95.783315,101.32147C97.49419400000001,101.36397000000001,99.244236,102.1864,99.244236,104.07527C99.244236,104.07527,99.244236,104.07527,99.244236,104.07527M108.26781,106.01199C107.81582999999999,107.6679,106.15234,109.18708,104.67332999999999,108.81097C103.69557999999999,108.56232,101.01256,107.72085,101.07884,105.03972C101.13274,102.86093,102.91262,101.02622000000001,104.58494,100.9149C106.37502,100.79575,108.87738,103.77871,108.26781,106.01199C108.26781,106.01199,108.26781,106.01199,108.26781,106.01199M114.5906,110.76832C114.85576999999999,113.05256,113.19242,114.13704,111.35262999999999,114.00629C109.51141999999999,113.87544000000001,108.28408999999999,113.22985000000001,108.11465999999999,110.76832C107.95759999999999,108.48653,110.92452999999999,108.06067,111.88295999999998,108.06067C112.84138999999999,108.06067,114.31700999999998,108.4115,114.59059999999998,110.76832C114.59059999999998,110.76832,114.5906,110.76832,114.5906,110.76832M107.01861,130.61862C106.43566,132.9474,104.40968,134.38661,103.01263,133.91746999999998C101.49956,133.40936999999997,100.23177,131.04486999999997,100.59764,129.55795999999998C100.8982,128.33648999999997,102.83838,126.64982999999998,104.25007,126.70100999999998C106.09494,126.76790999999999,107.4618,128.84814999999998,107.01861,130.61862C107.01861,130.61862,107.01861,130.61862,107.01861,130.61862M116.56466999999999,127.37178999999999C116.93844999999999,129.24836,114.7123,131.32007,112.65097999999999,131.19707C110.91837999999998,131.09369,108.68431,129.84351,108.91409999999999,127.37178999999999C109.12947999999999,125.05505,111.08646999999999,124.25304999999999,112.65097999999999,124.25361C114.28921999999999,124.2542,116.08072999999999,124.94228,116.56466999999999,127.37178999999999C116.56466999999999,127.37178999999999,116.56466999999999,127.37178999999999,116.56466999999999,127.37178999999999M116.92218,118.77252999999999C117.55769,120.84309999999999,115.63499,121.42181,114.56806999999999,121.48017999999999C112.92805999999999,121.56987999999998,111.19953999999998,120.62482999999999,111.50685999999999,118.94931C111.7914,117.39804,113.60963999999998,116.6836,114.56806999999999,116.6836C115.52649,116.6836,116.64095999999999,117.85629,116.92218,118.77253C116.92218,118.77253,116.92218,118.77252999999999,116.92218,118.77252999999999M132.59262999999999,139.87398C132.59262999999999,141.16867,131.54305,142.21824999999998,130.24833999999998,142.21824999999998C128.95363999999998,142.21824999999998,127.90405999999999,141.16867,127.90405999999999,139.87398C127.90405999999999,138.57925999999998,128.95363999999998,137.52967999999998,130.24833999999998,137.52967999999998C131.54305,137.52967999999998,132.59262999999999,138.57925999999998,132.59262999999999,139.87398C132.59262999999999,139.87398,132.59262999999999,139.87398,132.59262999999999,139.87398M131.58103999999997,133.07094999999998C131.47576999999998,136.33666999999997,128.63543999999996,136.46228,127.53871999999997,136.49453999999997C126.35719999999996,136.52933999999996,123.69140999999998,135.63128999999998,123.84993999999998,133.15932999999998C123.92793999999998,131.94359999999998,124.63192999999997,129.67031999999998,127.53871999999997,129.82412C130.68302999999997,129.99049,131.61801999999997,131.92396,131.58103999999997,133.07094999999998C131.58103999999997,133.07094999999998,131.58103999999997,133.07094999999998,131.58103999999997,133.07094999999998M134.51552999999998,125.63348999999998C134.59472999999997,126.74223999999998,132.79507999999998,128.79721999999998,131.05757,128.73791999999997C129.84763,128.69661999999997,127.41717,127.14735999999998,127.77638999999999,125.98704999999997C128.58147,123.38652999999996,129.40699999999998,123.51126999999997,131.05757,123.50135999999996C132.57545,123.49235999999996,134.41004,124.15722999999996,134.51553,125.63348999999997C134.51553,125.63348999999997,134.51552999999998,125.63348999999998,134.51552999999998,125.63348999999998M155.38532999999998,121.97222999999998C155.38532999999998,122.99789999999999,154.55384999999998,123.82938999999998,153.52818,123.82938999999998C152.50249,123.82938999999998,151.67101,122.99789999999997,151.67101,121.97222999999998C151.67101,120.94653999999998,152.50249,120.11505999999999,153.52818,120.11505999999999C154.55384999999998,120.11505999999999,155.38532999999998,120.94653999999998,155.38532999999998,121.97222999999998C155.38532999999998,121.97222999999998,155.38532999999998,121.97222999999998,155.38532999999998,121.97222999999998M149.08997,121.46839999999999C149.28157,122.74904,146.91006,124.24019999999999,145.31280999999998,124.36165999999999C143.36628,124.50967999999999,139.70728,123.15409999999999,140.65177999999997,120.76128999999999C141.27537999999998,119.18146999999999,142.91291999999999,117.96741999999999,144.87086999999997,118.13317999999998C146.62636999999998,118.28180999999998,148.84250999999998,119.81446999999999,149.08996999999997,121.46839999999999C149.08996999999997,121.46839999999999,149.08997,121.46839999999999,149.08997,121.46839999999999M144.21674,113.84236999999999C144.04516999999998,116.41591999999999,142.34330999999997,116.18294999999999,141.42070999999999,116.28486999999998C140.35611999999998,116.40245999999999,137.72849,115.93971999999998,138.09435,113.75397999999998C138.29577,112.55062999999998,139.27517999999998,111.35948999999998,141.15555,111.48826999999999C143.38848000000002,111.64119999999998,144.2819,112.86498999999999,144.21674000000002,113.84236999999999C144.21674000000002,113.84236999999999,144.21674,113.84236999999999,144.21674,113.84236999999999M152.73951,91.58776099999999C153.12905,92.77925599999999,152.23629,95.27404399999999,149.04782,95.48375699999998C146.82093,95.63022499999998,144.63582,94.95293099999998,144.47221,92.38325599999999C144.35889999999998,90.60369399999999,146.29209,89.80234199999998,148.34071,89.63632499999999C149.74095,89.52285299999998,152.38943,90.51697999999999,152.73951,91.58776099999999C152.73951,91.58776099999999,152.73951,91.58776099999999,152.73951,91.58776099999999M147.19848,100.17331999999999C147.19848,101.6698,145.98533999999998,102.88295999999998,144.48884999999999,102.88295999999998C142.99237,102.88295999999998,141.77922999999998,101.66979999999998,141.77922999999998,100.17331999999999C141.77922999999998,98.67683499999998,142.99237,97.463697,144.48884999999999,97.463697C145.98533999999998,97.463697,147.19848,98.676835,147.19848,100.17331999999999C147.19848,100.17331999999999,147.19848,100.17331999999999,147.19848,100.17331999999999M139.85036,103.25321999999998C139.87326,105.28399999999999,137.72611,106.49660999999999,136.5122,106.41459999999998C135.31217,106.33349999999997,132.37957,105.40414999999997,132.99727000000001,102.89966999999997C133.37737,101.35850999999997,134.16735000000003,99.31462999999997,136.5122,99.64989999999997C138.33921,99.91112999999997,139.82599000000002,101.08959999999998,139.85036,103.25321999999997C139.85036,103.25321999999997,139.85036,103.25321999999998,139.85036,103.25321999999998M121.24338999999999,94.46834199999998C121.21919,96.20950899999998,120.30369999999999,97.33803199999998,118.54458,97.34392799999998C117.15695,97.34862799999998,115.95338,96.32671399999998,115.75738,94.37995399999998C115.55756,92.39525599999999,116.40795,91.14325099999998,118.45618999999999,91.23920299999999C120.94251999999999,91.35567699999999,121.26311999999999,93.05108399999999,121.24338999999999,94.46834199999999C121.24338999999999,94.46834199999999,121.24338999999999,94.46834199999998,121.24338999999999,94.46834199999998M125.38394999999998,98.30445499999998C125.38394999999998,99.27967999999997,124.59335999999999,100.07026999999998,123.61810999999999,100.07026999999998C122.64287999999999,100.07026999999998,121.85228999999998,99.27967999999998,121.85228999999998,98.30445499999998C121.85228999999998,97.32920499999997,122.64287999999998,96.53861499999998,123.61810999999999,96.53861499999998C124.59335999999999,96.53861499999998,125.38394999999998,97.32920499999997,125.38394999999998,98.30445499999998C125.38394999999998,98.30445499999998,125.38394999999998,98.30445499999998,125.38394999999998,98.30445499999998M123.4472,86.363047C123.82061999999999,87.92845899999999,122.50667999999999,89.81041599999999,121.1815,89.872085C119.94247,89.929745,116.88088,89.392732,116.79445,86.451436C116.73275,84.352545,118.54069,82.85318,120.47439,83.030787C123.20778,83.281844,123.18921,85.281549,123.4472,86.36304700000001C123.4472,86.36304700000001,123.4472,86.363047,123.4472,86.363047" stroke-width="2"></path><path style="-webkit-tap-highlight-color: rgba(0, 0, 0, 0);" fill="#ffffff" stroke="#000000" d="M117.47577,112.68198C117.47577,112.68198,118.53121999999999,107.6014,118.53121999999999,107.6014C118.53121999999999,107.6014,89.20190799999999,68.120549,75.5,61.000005C64.990504,55.538479,50.453035,56.931178,40,62.500005C27.584657999999997,69.11424600000001,15.426048999999999,82.43916,15,96.500005C14.711571,106.01899,22.136434,115.94531,30.5,120.5C37.672094,124.40583,48.430817000000005,125.35183,55,120.5C60.470442,116.45967,63.50089,107.3242,61,101C59.023466,96.001785,52.200199,91.641026,47,93.000005C43.239005,93.982873,39.854996,99.28516,41,103C41.702886,105.28044,45.297275,106.91785,47.5,106C49.30071,105.24967,50.697363,102.04009,49.5,100.5C48.471922,99.177655,45.26725,102.48892,44.5,101C43.68845,99.425116,46.248658,97.267756,48,97.000005C51.475455,96.468666,55.793607,99.19762300000001,57,102.5C58.627613,106.95543,56.34806,113.22648,52.5,116C46.956512000000004,119.99552,37.958352,119.34552,32,116C25.021341,112.0816,19.041439,103.49032,19.5,95.500005C20.214406,83.051638,31.341054,71.56329,42.5,66.000005C51.599839,61.463286000000004,64.19205,60.419758,73,65.500005C87.541616,73.887314,117.47577,112.68198000000001,117.47577,112.68198000000001C117.47577,112.68198000000001,117.47577,112.68198,117.47577,112.68198M132.9042,105.9288C132.9042,105.9288,183.53019,93.99187599999999,191.30373,80.55616599999999C196.60584,71.39220499999999,196.52653,54.38107699999999,188.78895,47.14847599999999C184.47216,43.113424999999985,175.66173,40.41042999999999,168.41592,47.16293599999999C165.80883,49.59250699999999,167.51669,56.92727499999999,171.48446,56.448230999999986C172.62842,56.31011499999999,171.6987,53.42156399999998,172.83833,53.25158099999999C174.93970000000002,52.93814899999999,177.82631,56.214860999999985,176.95047000000002,58.16021699999999C175.36408000000003,61.68374099999999,168.08626000000004,61.15224899999999,165.40602,58.36814299999999C161.93345000000002,54.76100499999999,162.51020000000003,46.75490599999999,166.15734,43.34242399999999C172.61553,37.29975299999999,183.08271000000002,39.04321999999999,190.11259,44.43301799999999C200.28761,52.23417499999999,198.15037,79.22597499999999,197.28746,77.08387199999999C208.70119,68.78103199999998,192.14598,42.860540999999984,199.47693,29.973140999999984C204.3332,21.436048999999983,210.87767000000002,17.016671999999986,220.66580000000002,16.96653399999998C231.81525000000002,16.909433999999983,244.33048000000002,25.788783999999982,246.71458,36.74860599999998C248.50670000000002,44.98708999999998,247.25556,49.52532499999998,239.41037,56.65875899999998C233.95775,61.61669199999998,223.4777,60.60117099999998,218.35635,55.275584999999985C212.29747999999998,48.975115999999986,212.24302,38.92241499999999,219.05218,33.481765999999986C223.04756999999998,30.289364999999986,229.18940999999998,31.061685999999987,232.20441,35.215532999999986C234.62041,38.54413499999998,234.95812,44.82673399999999,231.81973,47.462921999999985C229.27057,49.604171999999984,223.60884,49.476112999999984,221.879,46.616584999999986C220.75357,44.75615399999999,222.42096999999998,41.532721999999985,224.37116,40.59566199999999C225.43388000000002,40.08503199999999,227.25305,40.52435199999999,227.76803,41.59190299999999C228.20961,42.50732499999999,225.96148000000002,43.65199699999999,226.62974,44.41617399999999C227.43165,45.33318599999999,229.55881,44.55299199999999,230.14746,43.487655999999994C231.37483,41.266437999999994,230.04906,37.559585999999996,227.91505,36.18999399999999C225.76747,34.81167999999999,221.97896,35.27308699999999,220.35375000000002,37.23940799999999C216.98623,41.31371099999999,217.24624000000003,49.49093399999999,221.08528,53.13562499999999C225.33276,57.16806999999999,233.94060000000002,56.47118299999999,238.58731,52.93254999999999C245.73864,47.48656499999999,245.3103,40.87261699999999,241.98593,32.47591399999999C239.12816999999998,25.257805999999988,229.74069,19.46871999999999,222.02778,19.761796999999987C212.25138,20.133281999999987,207.55609,22.348439999999986,203.05915000000002,31.078194999999987C195.72401000000002,45.317641999999985,209.97864,64.73739099999999,201.34819000000002,78.22035899999999C192.10137000000003,92.66624499999999,135.30535000000003,109.85639999999998,135.30535000000003,109.85639999999998C135.30535000000003,109.85639999999998,132.9042,105.9288,132.9042,105.9288M128.39277,121.34746C127.75601000000002,121.39135999999999,141.75074,141.28417,150.75,158.25C156.10729,168.34982,141.89037,187.25777,129.5,191.5C123.00631,193.72331,112.35892,190.52975,109,179.5C107.79145,175.53147,113.78503,169.18568,117.5,172C118.57107,172.8114,115.95185,175.1592,117,176C118.93269,177.55035,123.748,175.9648,124,173.5C124.45642,169.03563,116.82051,165.28671,112.5,166.5C106.90228,168.07196,102.81727000000001,176.43457,104.5,182C107.47971,191.85502,119.03247,196.26568,129.25,195C144.0388,193.16807,157.61696,164.86094,155.5,166.5C162.15106,181.5354,130.38053,197.7721,130.25,215C130.1635,226.41238,134.17605,234.69138,144,240.5C155.19027,247.11648,172.96317,245.5808,181.75,236C188.35505,228.79813,189.74028,223.51409999999998,186,211.75C183.4004,203.57362,172.25891000000001,198.42589,164,200.75C154.22924,203.49956,148.31616,213.54182,152,223C154.16156,228.54976,160.79429,231.38904,166.25,229C170.62182,227.08559,174.62299,220.98817,173,216.5C171.68172,212.85447,165.90773,209.65199,162.5,211.5C160.28291,212.70233,160.08292,216.91362,161.5,219C162.2722,220.13692,164.35948,220.76688,165.5,220C166.47799,219.3424,164.88197,216.87268,166,216.5C167.34164,216.05279,169.02827,218.08607,169,219.5C168.9411,222.44805,165.44631,225.3829,162.5,225.5C159.53493,225.61785,155.99013,222.92666,155.5,220C154.48443,213.93583,159.51148,205.894,165.5,204.5C172.12564,202.9577,180.38456,208.72009,183,215C187.02518,224.66483,182.73969,231.041,174.5,237.5C167.41685999999999,243.05239,154.59337,243.33123,147,238.5C137.37512,232.37624,133.93952,227.39407,134.5,216C135.41422,197.41468,165.64894,185.55734,160.25,167.75C154.60471,149.1301,131.94022999999999,119.80051,131.99049,119.7868C131.99049,119.7868,128.39277,121.34746,128.39277,121.34746" stroke-width="2"></path></svg>