<svg style="overflow: hidden; position: absolute; left: 0px; top: 0px;" height="250" version="1.1" width="250" xmlns="http://www.w3.org/2000/svg" xmlns:xlink="http://www.w3.org/1999/xlink"><desc style="-webkit-tap-highlight-color: rgba(0, 0, 0, 0);">Created with Raphaël 2.2.0</desc><defs style="-webkit-tap-highlight-color: rgba(0, 0, 0, 0);"></defs><path style="-webkit-tap-highlight-color: rgba(0, 0, 0, 0);" fill="#ffffff" stroke="#000000" d="M114.75328,118.77192C92.113193,145.59329,79.229593,181.72805,99.393737,231.97479C99.393737,231.97479,110.7473,231.97479,110.7473,231.97479C88.961151,194.51396,96.40877599999999,151.23035000000002,120.96534,131.80222000000003C120.43451,131.81912000000003,114.56529,120.31044000000003,114.75328,118.77192000000004C114.75328,118.77192000000004,114.75328,118.77192,114.75328,118.77192" stroke-width="2"></path><path style="-webkit-tap-highlight-color: rgba(0, 0, 0, 0);" fill="#b36200" stroke="#000000" d="M123.58303,105.36281C117.71556,90.820741,131.19294,84.32463,135.01246,75.125835C135.35152,84.873787,146.11211,94.913303,133.84159,107.99305999999999C146.94394,94.32778399999998,156.13982,105.39037999999998,167.19407,104.99009999999998C157.22934,109.85245999999998,152.85207,126.64718999999998,135.65175000000002,116.05752999999999C151.36249,123.90570999999998,147.54074000000003,133.84518999999997,153.00603,142.79031999999998C144.72643000000002,136.29808999999997,132.38594,140.84523,128.27091000000001,122.48438999999998C132.67398000000003,140.32163999999997,118.66240000000002,143.04786,113.73522000000001,153.22872999999998C114.80503000000002,142.17364999999998,102.52734000000001,132.52016999999998,120.31272000000001,119.70981999999998C108.10919000000001,132.56664999999998,96.89979200000002,120.83972999999997,85.20410100000001,121.13843999999997C95.757163,117.32839999999997,97.55880300000001,104.53817999999998,118.19769000000001,111.07762999999997C98.02228500000001,107.89272999999997,103.07674,92.41057899999997,95.76807000000001,82.95432099999996C105.24874000000001,90.07493199999996,120.16546000000001,88.12197299999997,123.58303000000001,105.36280999999997C123.58303000000001,105.36280999999997,123.58303,105.36281,123.58303,105.36281" stroke-width="2"></path><path style="-webkit-tap-highlight-color: rgba(0, 0, 0, 0);" fill="#ff8c00" stroke="#000000" d="M119.50105,106.54221C107.33968,96.642714,116.00329,84.44512399999999,114.90485000000001,74.54562999999999C119.90989,82.91743399999999,134.18112000000002,86.51106199999998,129.75410000000002,103.89056C134.62669000000002,85.59660299999999,148.02196000000004,90.841804,157.50803000000002,85.152231C151.13110000000003,94.222691,155.40991000000002,111.04278,135.23417,110.07774C152.78149000000002,109.36171,154.23572000000001,119.91085000000001,163.34167000000002,125.10377000000001C152.95616,123.41795,144.34671000000003,133.35987,131.87541000000002,119.27013000000001C144.34604000000002,132.76227,133.39386000000002,141.91686,133.99673,153.21127C129.59401000000003,143.01444,114.18082000000001,140.49158,123.56692000000001,120.68436000000001C119.09088000000001,137.83631000000003,103.61167,132.98192,93.51488200000001,138.89236C100.91522000000002,130.45918,96.31525400000001,118.38955,117.54569000000001,114.14732C98.34130200000001,121.10302999999999,95.289411,105.1052,84.322484,100.35504999999999C96.06318900000001,102.01098999999999,108.18141,93.09632299999998,119.50104999999999,106.54221C119.50104999999999,106.54221,119.50105,106.54221,119.50105,106.54221" stroke-width="2"></path><path style="-webkit-tap-highlight-color: rgba(0, 0, 0, 0);" fill="#ff8c00" stroke="#000000" d="M132.2428,105.5804C135.99316,108.75082,136.46329,114.36121,133.29287,118.11156C130.12246,121.86192,124.51204999999999,122.33206,120.76169999999999,119.16163999999999C117.01133999999999,115.99122,116.54120999999999,110.38082999999999,119.71162999999999,106.63045999999999C122.88204999999999,102.88010999999999,128.49245,102.40997999999999,132.2428,105.58039999999998C132.2428,105.58039999999998,132.2428,105.5804,132.2428,105.5804" stroke-width="2"></path></svg>