<svg style="overflow: hidden; position: absolute; left: 0px; top: 0px;" height="250" version="1.1" width="250" xmlns="http://www.w3.org/2000/svg" xmlns:xlink="http://www.w3.org/1999/xlink"><desc style="-webkit-tap-highlight-color: rgba(0, 0, 0, 0);">Created with Raphaël 2.2.0</desc><defs style="-webkit-tap-highlight-color: rgba(0, 0, 0, 0);"></defs><path style="-webkit-tap-highlight-color: rgba(0, 0, 0, 0);" fill="#ff8c00" stroke="#000000" d="M114.49251,119.39856C106.5572,129.07240000000002,99.76039999999999,139.48554000000001,95.12584,151.07356000000001C94.88777,151.66882,67.2804,137.39219000000003,67.053877,137.99371000000002C66.882276,138.44939000000002,94.08903000000001,153.78189000000003,93.92419699999999,154.24122000000003C92.751104,157.51023000000004,90.62594299999999,166.24737000000002,89.820459,169.71189000000004C89.615896,170.59175000000005,59.173579000000004,161.35396000000003,58.993849999999995,162.24870000000004C58.786325999999995,163.28181000000004,89.345584,172.44997000000004,89.172151,173.50346000000005C88.286959,178.88040000000004,89.102681,179.65139000000005,89.189401,185.60425000000004C89.20504100000001,186.67804000000004,55.487641,187.01182000000003,55.537591000000006,188.10579000000004C55.59354100000001,189.33107000000004,89.171278,188.81916000000004,89.27137100000002,190.07036000000005C89.72824000000001,195.78140000000005,91.27593800000001,207.01568000000006,92.71941300000002,213.30289000000005C93.00483000000001,214.54605000000004,63.435608000000016,222.55105000000006,63.762171000000016,223.81813000000005C64.06117600000002,224.97828000000004,93.87760700000001,216.64855000000006,94.21179000000001,217.82912000000005C95.55732,222.58247000000006,97.19062000000001,227.50275000000005,99.13298,232.60143000000005C99.13298,232.60143000000005,110.13298,232.60143000000005,110.13298,232.60143000000005C103.77251,221.80472000000006,99.88713,211.62677000000005,98.01207000000001,201.95141000000004C97.89037,201.32344000000003,132.27714,193.19758000000004,132.17225000000002,192.57381000000004C132.03969,191.78549000000004,97.42046000000002,198.50050000000005,97.31429000000003,197.71878000000004C96.38253000000003,190.85833000000002,96.45716000000003,184.24946000000003,97.36479000000003,177.84886000000003C97.43699000000002,177.33965000000003,128.13947000000002,181.08177000000003,128.22213000000002,180.57518000000002C128.31063000000003,180.03288,97.78006000000002,175.24206,97.88032000000003,174.70270000000002C99.13321000000002,167.96313000000004,101.29709000000003,161.45132,104.16302000000003,155.11501C104.42306000000004,154.54008000000002,132.18889000000004,165.96659000000002,132.46033000000003,165.39451000000003C132.73990000000003,164.80533000000003,105.52542000000003,152.21764000000002,105.81674000000002,151.63139C110.31441000000002,142.58051,116.19327000000003,133.87493,122.82590000000002,125.35779000000001C122.29508000000001,125.37469000000002,115.36519000000001,119.87642000000001,114.49252000000001,119.39856C114.49252000000001,119.39856,114.49251,119.39856,114.49251,119.39856" stroke-width="2"></path><path style="-webkit-tap-highlight-color: rgba(0, 0, 0, 0);" fill="#ff8c00" stroke="#000000" d="M114.75328,118.77192C92.113193,145.59329,79.229593,181.72805,99.393737,231.97479C99.393737,231.97479,110.7473,231.97479,110.7473,231.97479C88.961151,194.51396,96.40877599999999,151.23035000000002,120.96534,131.80222000000003C120.43451,131.81912000000003,114.56529,120.31044000000003,114.75328,118.77192000000004C114.75328,118.77192000000004,114.75328,118.77192,114.75328,118.77192" stroke-width="2"></path><path style="-webkit-tap-highlight-color: rgba(0, 0, 0, 0);" fill="#914c91" stroke="#000000" d="M123.58303,105.36281C117.71556,90.820741,131.19294,84.32463,135.01246,75.125835C135.35152,84.873787,146.11211,94.913303,133.84159,107.99305999999999C146.94394,94.32778399999998,156.13982,105.39037999999998,167.19407,104.99009999999998C157.22934,109.85245999999998,152.85207,126.64718999999998,135.65175000000002,116.05752999999999C151.36249,123.90570999999998,147.54074000000003,133.84518999999997,153.00603,142.79031999999998C144.72643000000002,136.29808999999997,132.38594,140.84523,128.27091000000001,122.48438999999998C132.67398000000003,140.32163999999997,118.66240000000002,143.04786,113.73522000000001,153.22872999999998C114.80503000000002,142.17364999999998,102.52734000000001,132.52016999999998,120.31272000000001,119.70981999999998C108.10919000000001,132.56664999999998,96.89979200000002,120.83972999999997,85.20410100000001,121.13843999999997C95.757163,117.32839999999997,97.55880300000001,104.53817999999998,118.19769000000001,111.07762999999997C98.02228500000001,107.89272999999997,103.07674,92.41057899999997,95.76807000000001,82.95432099999996C105.24874000000001,90.07493199999996,120.16546000000001,88.12197299999997,123.58303000000001,105.36280999999997C123.58303000000001,105.36280999999997,123.58303,105.36281,123.58303,105.36281" stroke-width="2"></path><path style="-webkit-tap-highlight-color: rgba(0, 0, 0, 0);" fill="#dda0dd" stroke="#000000" d="M119.50105,106.54221C107.33968,96.642714,116.00329,84.44512399999999,114.90485000000001,74.54562999999999C119.90989,82.91743399999999,134.18112000000002,86.51106199999998,129.75410000000002,103.89056C134.62669000000002,85.59660299999999,148.02196000000004,90.841804,157.50803000000002,85.152231C151.13110000000003,94.222691,155.40991000000002,111.04278,135.23417,110.07774C152.78149000000002,109.36171,154.23572000000001,119.91085000000001,163.34167000000002,125.10377000000001C152.95616,123.41795,144.34671000000003,133.35987,131.87541000000002,119.27013000000001C144.34604000000002,132.76227,133.39386000000002,141.91686,133.99673,153.21127C129.59401000000003,143.01444,114.18082000000001,140.49158,123.56692000000001,120.68436000000001C119.09088000000001,137.83631000000003,103.61167,132.98192,93.51488200000001,138.89236C100.91522000000002,130.45918,96.31525400000001,118.38955,117.54569000000001,114.14732C98.34130200000001,121.10302999999999,95.289411,105.1052,84.322484,100.35504999999999C96.06318900000001,102.01098999999999,108.18141,93.09632299999998,119.50104999999999,106.54221C119.50104999999999,106.54221,119.50105,106.54221,119.50105,106.54221" stroke-width="2"></path><path style="-webkit-tap-highlight-color: rgba(0, 0, 0, 0);" fill="#ff8c00" stroke="#000000" d="M132.2428,105.5804C135.99316,108.75082,136.46329,114.36121,133.29287,118.11156C130.12246,121.86192,124.51204999999999,122.33206,120.76169999999999,119.16163999999999C117.01133999999999,115.99122,116.54120999999999,110.38082999999999,119.71162999999999,106.63045999999999C122.88204999999999,102.88010999999999,128.49245,102.40997999999999,132.2428,105.58039999999998C132.2428,105.58039999999998,132.2428,105.5804,132.2428,105.5804" stroke-width="2"></path></svg>