<svg style="overflow: hidden; position: absolute; left: 0px; top: 0px;" height="250" version="1.1" width="250" xmlns="http://www.w3.org/2000/svg" xmlns:xlink="http://www.w3.org/1999/xlink"><desc style="-webkit-tap-highlight-color: rgba(0, 0, 0, 0);">Created with Raphaël 2.2.0</desc><defs style="-webkit-tap-highlight-color: rgba(0, 0, 0, 0);"></defs><path style="-webkit-tap-highlight-color: rgba(0, 0, 0, 0);" fill="none" stroke="#000000" d="M101.31375,193.06422C98.731567,190.48204,96.149385,187.03912,92.706476,186.17838C85.82064799999999,183.59619,78.074091,186.17838,73.770449,191.34275C70.327536,196.50713,69.466807,204.25369,73.770449,209.41806C76.35263499999999,212.00025,80.656277,213.7217,84.099191,212.86096C87.542105,212.00025,90.12428600000001,207.69659000000001,89.263563,204.25369C89.263563,201.6715,86.681377,199.08931,84.099191,199.95005C82.377734,199.95005,80.656277,202.53224,81.51700600000001,204.25369C81.51700600000001,205.11441,84.099191,205.97514,84.099191,204.25369M105.53132000000001,181.61653C105.53132000000001,179.89508,104.67060000000001,177.31289,103.80987,175.59142C100.36697000000001,168.70559,95.202589,162.6805,88.316761,160.95904C83.15239,159.23757999999998,77.12729,160.09832,72.823648,162.6805C69.380734,164.40195,65.937821,168.70559,65.937821,173.00924C65.937821,177.31289,70.241463,181.61653,74.545105,180.75579000000002C77.98802,180.75579000000002,81.43093300000001,176.45215000000002,80.570205,173.00924C80.570205,169.56633,76.26656200000001,166.98414,72.823648,168.70559C70.24146300000001,169.56633,69.380734,173.00924,71.102191,175.59142C72.823648,177.31289,75.405834,177.31289,76.26656200000001,174.7307C77.12729,173.00924,75.40583400000001,171.28778000000003,73.68437600000001,171.28778000000003C71.96292000000001,171.28778000000003,71.96292000000001,174.7307,73.68437600000001,173.86997000000002M105.53132000000002,181.61653C104.67060000000002,168.70559,106.39206000000003,151.49102000000002,116.72080000000003,143.74448C120.16371000000002,141.16229,126.18882000000002,138.58011000000002,131.35319,139.44082C138.23901,141.16229,144.2641,146.32667,142.54265,154.07321C141.68192000000002,160.09832,135.65683,164.40195,129.63172,163.54121999999998C125.32808,162.6805,121.88518,158.37686,122.74589,154.07321C123.60663000000001,150.63029999999998,127.04954000000001,148.04811999999998,130.49245,148.90884C133.07464,149.76957,134.79609,151.49102,133.93537999999998,154.07321C133.07464,155.79468,132.21390999999997,156.65538999999998,130.49245,156.65538999999998C129.63172,156.65538999999998,128.771,154.93393999999998,129.63172,154.07321C129.63172,153.21249,130.49245,153.21249,131.35319,153.21249M113.36395000000002,186.43661C117.66760000000002,179.55077,124.55344000000002,172.66494,133.16071000000002,170.08276C147.7931,164.91839000000002,165.00767000000002,171.80423000000002,171.03276000000002,185.57588C174.47568,192.4617,173.61495000000002,201.92972,169.31131000000002,207.95483000000002C166.72912000000002,212.25846,160.70403000000002,213.97992000000002,155.53966000000003,211.39773000000002C150.37528000000003,209.67628000000002,146.07165000000003,203.65117000000004,147.79310000000004,198.48681000000002C148.65383000000003,194.18316000000002,154.67892000000003,190.74025000000003,158.98256000000003,193.32244000000003C162.42548000000002,195.04389000000003,165.00767000000005,200.20826000000002,161.56475000000003,202.79045000000002C158.98256000000003,205.37264000000002,154.67892000000003,203.65117,154.67892000000003,200.20826000000002C153.81820000000005,196.76534000000004,159.84330000000003,197.62608000000003,158.12185000000002,200.20826000000002M115.77400000000003,202.70438000000001C134.71002000000004,186.35053000000002,150.20314000000002,200.12219000000002,150.20314000000002,219.91895000000002C148.48168,229.38696000000002,140.73513000000003,237.13351000000003,131.26712000000003,235.41205000000002C124.38128000000003,234.55132000000003,118.35618000000004,226.80478000000002,120.07763000000003,219.05822000000003C120.93837000000003,213.03311000000002,126.96346000000003,207.86875000000003,132.12783000000002,209.59021000000004C136.43148000000002,210.45092000000005,139.87439,214.75458000000003,139.01366000000002,219.91895000000005C138.15294000000003,223.36186000000006,134.71002000000001,225.94404000000006,132.12783000000002,225.08331000000004C130.40638,224.22259000000005,128.68493,222.50112000000004,129.54565000000002,219.91895000000005C130.40638,219.05822000000006,131.26712000000003,217.33677000000006,132.98857,218.19748000000004" stroke-width="2"></path><path style="-webkit-tap-highlight-color: rgba(0, 0, 0, 0);" fill="#228b22" stroke="#000000" d="M121.43021,144.54919C121.43021099470623,146.68834318507515,119.6960831850754,148.42247,117.55693000000001,148.42247C115.41777681492462,148.42247,113.68364900529379,146.68834318507515,113.68365000000001,144.54919C113.68364900529379,142.41003681492487,115.41777681492462,140.67591000000002,117.55693000000001,140.67591000000002C119.6960831850754,140.67591000000002,121.43021099470623,142.41003681492487,121.43021,144.54919C121.43021,144.54919,121.43021,144.54919,121.43021,144.54919M71.029236,162.91929000000002C71.02923699470622,165.05844318507516,69.29511118507538,166.79257,67.155958,166.79257C65.01680481492461,166.79257,63.28267800529377,165.05844318507516,63.282679,162.91929000000002C63.28268352857903,160.78014072048578,65.01680872048097,159.04602000000003,67.155958,159.04602000000003C69.29510727951903,159.04602000000003,71.02923147142097,160.78014072048578,71.029236,162.91929000000002C71.029236,162.91929000000002,71.029236,162.91929000000002,71.029236,162.91929000000002M81.836688,160.04229C81.83668899470622,162.18144318507515,80.10256218507539,163.91557,77.963409,163.91557C75.82425581492461,163.91557,74.09013000529377,162.18144318507515,74.090131,160.04229C74.09013000529377,157.90313681492486,75.82425581492461,156.16901000000001,77.963409,156.16901000000001C80.10256218507539,156.16901000000001,81.83668899470622,157.90313681492486,81.836688,160.04229C81.836688,160.04229,81.836688,160.04229,81.836688,160.04229M111.10146,148.85283C111.10146099470623,150.99198318507516,109.3673331850754,152.72611,107.22818000000001,152.72611C105.08902681492462,152.72611,103.35489900529379,150.99198318507516,103.35490000000001,148.85283C103.35489900529379,146.71367681492487,105.08902681492462,144.97955000000002,107.22818000000001,144.97955000000002C109.3673331850754,144.97955000000002,111.10146099470623,146.71367681492487,111.10146,148.85283C111.10146,148.85283,111.10146,148.85283,111.10146,148.85283M146.22641,148.82913000000002C146.2264109947062,150.96828318507517,144.4922831850754,152.70241000000001,142.35313,152.70241000000001C140.2139768149246,152.70241000000001,138.47984900529377,150.96828318507517,138.47985,148.82913000000002C138.47984900529377,146.68997681492488,140.2139768149246,144.95585000000003,142.35313,144.95585000000003C144.4922831850754,144.95585000000003,146.2264109947062,146.68997681492488,146.22641,148.82913000000002C146.22641,148.82913000000002,146.22641,148.82913000000002,146.22641,148.82913000000002M133.98280999999997,149.78182C133.9828109947062,151.92097318507516,132.24868318507538,153.6551,130.10952999999998,153.6551C127.97037681492458,153.6551,126.23626900529375,151.92097318507516,126.23626999999998,149.78182C126.23626900529375,147.64266681492487,127.97037681492459,145.90854000000002,130.10952999999998,145.90854000000002C132.24868318507538,145.90854000000002,133.9828109947062,147.64266681492487,133.98280999999997,149.78182C133.98280999999997,149.78182,133.98280999999997,149.78182,133.98280999999997,149.78182M157.58079999999998,168.27712000000002C157.58079547142097,170.41626927951427,155.84666927951903,172.15039000000002,153.70752,172.15039000000002C151.56837072048094,172.15039000000002,149.834244528579,170.41626927951427,149.83424,168.27712000000002C149.83423900529377,166.13796681492488,151.5683668149246,164.40384000000003,153.70752,164.40384000000003C155.8466731850754,164.40384000000003,157.5808009947062,166.13796681492488,157.58079999999998,168.27712000000002C157.58079999999998,168.27712000000002,157.58079999999998,168.27712000000002,157.58079999999998,168.27712000000002M146.29462999999998,169.22979000000004C146.29462547142097,171.36893927951428,144.56049927951904,173.10306000000003,142.42135,173.10306000000003C140.28220072048094,173.10306000000003,138.548074528579,171.36893927951428,138.54807,169.22979000000004C138.54806900529377,167.0906368149249,140.2821968149246,165.35651000000004,142.42135,165.35651000000004C144.5605031850754,165.35651000000004,146.2946309947062,167.0906368149249,146.29462999999998,169.22979000000004C146.29462999999998,169.22979000000004,146.29462999999998,169.22979000000004,146.29462999999998,169.22979000000004M152.28540999999998,194.90549000000004C152.28540547142097,197.04463927951429,150.55127927951904,198.77876000000003,148.41213,198.77876000000003C146.27298072048094,198.77876000000003,144.538854528579,197.04463927951429,144.53885,194.90549000000004C144.53884900529377,192.7663368149249,146.2729768149246,191.03221000000005,148.41213,191.03221000000005C150.5512831850754,191.03221000000005,152.2854109947062,192.7663368149249,152.28540999999998,194.90549000000004C152.28540999999998,194.90549000000004,152.28540999999998,194.90549000000004,152.28540999999998,194.90549000000004M162.54117,190.59237000000005C162.54116547142098,192.7315192795143,160.80703927951905,194.46564000000004,158.66789,194.46564000000004C156.52874072048095,194.46564000000004,154.79461452857902,192.7315192795143,154.79461,190.59237000000005C154.79460900529378,188.4532168149249,156.5287368149246,186.71909000000005,158.66789,186.71909000000005C160.8070431850754,186.71909000000005,162.54117099470622,188.4532168149249,162.54117,190.59237000000005C162.54117,190.59237000000005,162.54117,190.59237000000005,162.54117,190.59237000000005M96.93242,207.2539C96.93242099470622,209.39305318507513,95.19829318507539,211.12717999999998,93.05914,211.12717999999998C90.91998681492461,211.12717999999998,89.18586600529378,209.39305318507513,89.185867,207.2539C89.18586600529378,205.11474681492484,90.91998681492461,203.38062,93.05914,203.38062C95.19829318507539,203.38062,96.93242099470622,205.11474681492484,96.93242,207.2539C96.93242,207.2539,96.93242,207.2539,96.93242,207.2539M88.51851199999999,214.4298C88.51851299470621,216.56895318507515,86.78438918507537,218.30308,84.64523599999998,218.30308C82.5060828149246,218.30308,80.77195700529376,216.56895318507515,80.77195799999998,214.4298C80.77195700529376,212.29064681492486,82.5060828149246,210.55652,84.64523599999998,210.55652C86.78438918507537,210.55652,88.51851299470621,212.29064681492486,88.51851199999999,214.4298C88.51851199999999,214.4298,88.51851199999999,214.4298,88.51851199999999,214.4298M141.14086999999998,206.95207C141.1408709947062,209.09122318507514,139.40674318507538,210.82535,137.26758999999998,210.82535C135.12843681492458,210.82535,133.39430900529376,209.09122318507514,133.39431,206.95207C133.39430900529376,204.81291681492485,135.12843681492458,203.07879,137.26758999999998,203.07879C139.40674318507538,203.07879,141.1408709947062,204.81291681492485,141.14086999999998,206.95207C141.14086999999998,206.95207,141.14086999999998,206.95207,141.14086999999998,206.95207M130.81213999999997,211.25572C130.81213547142096,213.39486927951424,129.07800927951902,215.12899,126.93885999999998,215.12899C124.79971072048093,215.12899,123.06558452857901,213.39486927951424,123.06557999999998,211.25572C123.06557900529376,209.11656681492485,124.79970681492459,207.38244,126.93885999999998,207.38244C129.07801318507535,207.38244,130.8121409947062,209.11656681492485,130.81213999999997,211.25572C130.81213999999997,211.25572,130.81213999999997,211.25572,130.81213999999997,211.25572" stroke-width="2"></path><path style="-webkit-tap-highlight-color: rgba(0, 0, 0, 0);" fill="#dda0dd" stroke="#000000" d="M94.46043,246.30024C94.46043,246.30024,124.91546,246.67622,124.91546,246.67622C115.24987,239.04307,112.28083,225.88085,115.51575,202.30964C111.5818,203.57927,109.13808999999999,204.12457,113.25981999999999,186.14216C106.42399999999999,199.31797999999998,106.04673999999999,186.79603,104.98808999999999,177.49444C106.42238999999998,189.71832,104.50382999999998,193.41518,101.55857999999999,192.97446C105.81306,203.76676,106.49439,226.51612,94.46042999999999,246.30024C94.46042999999999,246.30024,94.46043,246.30024,94.46043,246.30024" stroke-width="2"></path></svg>