<svg style="overflow: hidden; position: absolute; left: 0px; top: 0px;" height="250" version="1.1" width="250" xmlns="http://www.w3.org/2000/svg" xmlns:xlink="http://www.w3.org/1999/xlink"><desc style="-webkit-tap-highlight-color: rgba(0, 0, 0, 0);">Created with Raphaël 2.2.0</desc><defs style="-webkit-tap-highlight-color: rgba(0, 0, 0, 0);"></defs><path style="-webkit-tap-highlight-color: rgba(0, 0, 0, 0);" fill="#dda0dd" stroke="#000000" d="M107.40967,41.485066C104.25798,41.857093000000006,103.8678,71.56531700000001,104.27363000000001,75.003344C104.54837,77.330928,105.96396000000001,79.218329,107.82448000000001,80.081608C106.21609000000001,81.35436,105.27887000000001,83.519486,105.55362000000001,85.84707C105.81533,88.06414000000001,107.11359000000002,89.87672,108.84360000000001,90.79069C107.26831000000001,92.06891999999999,106.35416000000001,94.21021999999999,106.62583000000001,96.51171C107.03166,99.94973999999999,111.38215000000001,107.04450999999999,114.53386,106.67248C117.68555,106.30045,121.21775000000001,100.27574,120.81192,96.83770999999999C120.55022,94.62063999999998,119.25196,92.80806999999999,117.52194,91.89407999999999C119.09723,90.61585999999998,120.01139,88.47455999999998,119.73971,86.17307C119.46496,83.845483,118.04939,81.958084,116.18887000000001,81.094805C117.79724,79.822052,118.73446000000001,77.65692299999999,118.45972,75.32934399999999C118.05389000000001,71.891314,110.56138,41.11303699999999,107.40967,41.48506599999999C107.40967,41.48506599999999,107.40967,41.485066,107.40967,41.485066M137.59166,48.43867C134.45501,47.955881000000005,125.02920999999999,82.637767,124.50255999999999,86.05937C124.14602,88.37583000000001,125.00640999999999,90.57263,126.56897,91.90123C124.6792,92.69845,123.19802999999999,94.53483,122.84147999999999,96.85128999999999C122.50186,99.05776999999999,123.26915999999999,101.15113,124.69242999999999,102.49376C122.83308999999998,103.30508999999999,121.38050999999999,105.12467,121.02794999999999,107.41516C120.50130999999999,110.83677,122.61712999999999,114.0019,125.75376999999999,114.48469C128.89041999999998,114.96748,133.77604,115.19607,134.30268999999998,111.77447C134.64229999999998,109.56799,133.87499999999997,107.47462999999999,132.45173999999997,106.13199999999999C134.31107999999998,105.32066999999999,135.76365999999996,103.50108999999999,136.11620999999997,101.21059999999999C136.47274999999996,98.89412999999999,135.61235999999997,96.69733999999998,134.04979999999998,95.36873999999999C135.93956999999997,94.57150999999999,137.42073999999997,92.73513999999999,137.77728999999997,90.41866999999999C138.30393999999995,86.99707,140.72830999999996,48.92145899999999,137.59165999999996,48.438669999999995C137.59165999999996,48.438669999999995,137.59166,48.43867,137.59166,48.43867M161.49455,53.865452000000005C158.40503,53.139853,143.29024,94.41449,142.49873,97.78469000000001C141.96286,100.06635000000001,142.64956,102.32347000000001,144.10390999999998,103.76973000000001C142.15778999999998,104.41736000000002,140.53811,106.13281,140.00223,108.41447000000001C139.49182,110.58780000000002,140.09373,112.73456000000002,141.40814,114.18395000000001C139.49127000000001,114.84802,137.90139,116.54894000000002,137.37153,118.80502000000001C136.58,122.17522000000001,138.44291,125.49552000000001,141.53243,126.22112000000001C144.62195,126.94672000000001,149.48036000000002,126.88353000000001,150.27187,123.51334000000001C150.78230000000002,121.34001,150.18037,119.19324000000002,148.86597,117.74386000000001C150.78285,117.07979000000002,152.37273,115.37887,152.90259,113.12278C153.43844,110.84111,152.75176,108.584,151.2974,107.13774000000001C153.24352000000002,106.49011,154.86321,104.77466000000001,155.39907000000002,102.49300000000001C156.19060000000002,99.12280000000001,164.58407000000003,54.59104900000001,161.49455000000003,53.86545200000001C161.49455000000003,53.86545200000001,161.49455,53.865452000000005,161.49455,53.865452000000005M190.17323,66.804832C187.27365,65.514837,164.55893999999998,103.32490000000001,163.15175,106.4879C162.19907,108.62928,162.452,110.97494999999999,163.61058,112.66745C161.57772,112.9401,159.66609,114.32277,158.7134,116.46416C157.80595,118.50387,157.99624,120.72529,159.01672000000002,122.3947C157.00954000000002,122.68899,155.12988,124.06295,154.18788,126.18032C152.78069,129.34332,157.04939000000002,132.99510999999998,159.94896,134.28511C162.84853999999999,135.5751,166.33986,134.05674,167.74705,130.89374C168.6545,128.85403,168.46419,126.63260000000001,167.44373,124.96319000000001C169.45092,124.66891000000001,171.33056,123.29495000000001,172.27256999999997,121.17757000000002C173.22524999999996,119.03619000000002,172.97230999999996,116.69051000000002,171.81374999999997,114.99802000000001C173.84658999999996,114.72536000000001,175.75822999999997,113.34269,176.71091999999996,111.20131C178.11810999999994,108.03831000000001,193.07280999999995,68.094831,190.17322999999996,66.804832C190.17322999999996,66.804832,190.17323,66.804832,190.17323,66.804832M220.32811999999998,81.31964500000001C217.65076,79.61574200000001,189.89963999999998,109.02040000000001,188.04092999999997,111.94101C186.78256999999996,113.91829,186.68645999999998,116.27560000000001,187.58248999999998,118.12059C185.53164999999998,118.09019,183.43684,119.17547,182.17847999999998,121.15276C180.97985999999997,123.03616,180.84014,125.26134,181.60297999999997,127.0631C179.57433999999998,127.05810000000001,177.51246999999998,128.13928,176.26818999999998,130.09439C174.40948999999998,133.01500000000001,179.06976999999998,137.66268,181.74714999999998,139.36659C184.42450999999997,141.0705,188.10173999999998,140.08417,189.96043999999998,137.16356C191.15904999999998,135.28016,191.29877999999997,133.05498999999998,190.53593999999998,131.25322C192.56456999999997,131.25822,194.62644999999998,130.17704,195.87071999999998,128.22192C197.12908,126.24464000000002,197.22518999999997,123.88733,196.32916999999998,122.04235000000001C198.37999999999997,122.07275000000001,200.47481,120.98746000000001,201.73317999999998,119.01017000000002C203.59187999999997,116.08957000000002,223.00551,83.02356400000002,220.32811999999998,81.31964500000001C220.32811999999998,81.31964500000001,220.32811999999998,81.31964500000001,220.32811999999998,81.31964500000001M244.58819999999997,107.08325C242.60745999999997,104.60368000000001,218.85472,117.59331,216.14987999999997,119.754C214.31866999999997,121.21681000000001,213.46385999999995,123.41577000000001,213.71368999999996,125.45157C211.78338999999997,124.75821,209.44990999999996,125.10613000000001,207.61870999999996,126.56894C205.87444999999997,127.9623,205.02119999999996,130.02212,205.15894999999998,131.97385C203.24148999999997,131.31149,200.94042999999996,131.6664,199.12974999999997,133.11282C196.42489999999998,135.2735,198.81440999999998,141.23869,200.79514999999998,143.71827C202.77588999999998,146.19783999999999,206.57429999999997,146.45635,209.27915,144.29566C211.02340999999998,142.90231,211.87666,140.84248,211.73890999999998,138.89076C213.65635999999998,139.55311,215.95743,139.1982,217.76810999999998,137.75179C219.59930999999997,136.28897,220.45412,134.09001,220.20429,132.05421C222.13459999999998,132.74757000000002,224.46808,132.39966,226.29927999999998,130.93684000000002C229.00410999999997,128.77615000000003,246.56894999999997,109.56284000000002,244.58819999999997,107.08325000000002C244.58819999999997,107.08325000000002,244.58819999999997,107.08325,244.58819999999997,107.08325M53.516943,183.17833C51.68306,180.58827,78.07538,157.03447,80.90075,155.03397999999999C82.81356,153.67961999999997,85.16327,153.46735999999999,87.05019,154.2713C86.91866,152.22448,87.89933,150.07867,89.81214,148.72431C91.63413,147.43426,93.8497,147.18496,95.68691,147.85801C95.5816,145.8321,96.56002,143.71939,98.45139,142.38021C101.27677,140.37973,106.7256,142.04107000000002,108.55949000000001,144.63114000000002C110.39337,147.22121,109.58962000000001,150.94260000000003,106.76424000000002,152.94308C104.94225000000002,154.23315000000002,102.72668000000002,154.48245,100.88947000000002,153.80941C100.99478000000002,155.83531000000002,100.01636000000002,157.94803000000002,98.12499000000001,159.2872C96.21218000000002,160.64154000000002,93.86248,160.85381,91.97555000000001,160.04989C92.10708000000001,162.0967,91.12640000000002,164.24251,89.21360000000001,165.59686C86.38822000000002,167.59735,55.350842000000014,185.76842,53.51694300000001,183.17833C53.51694300000001,183.17833,53.516943,183.17833,53.516943,183.17833M74.99869,203.68829C72.53994999999999,201.68176,96.70134999999999,168.93507,98.89018999999999,166.25295C100.37205999999999,164.43714,102.57985,163.60534,104.6129,163.87641C103.93975999999999,161.93896999999998,104.31204,159.60926,105.79391,157.79343C107.20542,156.06383,109.27405,155.23216,111.22425,155.39035C110.58197,153.46608,110.96091,151.16885000000002,112.42617,149.37338000000003C114.61502,146.69127000000003,118.38263,146.14362000000003,120.84136,148.15017000000003C123.30009,150.15672000000004,127.47505,153.95909000000003,125.28622,156.64121000000003C123.8747,158.37082000000004,121.80608,159.20250000000004,119.85587,159.04430000000002C120.49816,160.96858000000003,120.11922,163.2658,118.65395,165.06127C117.17208,166.87709,114.9643,167.70888,112.93124999999999,167.43782000000002C113.60439,169.37526000000003,113.23209999999999,171.70497,111.75023999999999,173.52079C109.56138999999999,176.2029,77.45742999999999,205.69485,74.99868999999998,203.68829C74.99868999999998,203.68829,74.99869,203.68829,74.99869,203.68829M97.8018,216.52993C95.19427,214.72095000000002,117.64834,178.88765,119.62165999999999,176.04322000000002C120.95760999999999,174.11752,123.09391,173.11633,125.14189999999999,173.22822000000002C124.31992,171.34909000000002,124.50963999999999,168.99746000000002,125.84559999999999,167.07175C127.11813,165.23748,129.11570999999998,164.24721,131.07231,164.25305C130.28211,162.38465,130.48101,160.06489,131.80198,158.16076C133.7753,155.31634,137.48881999999998,154.47694,140.09634999999997,156.2859C142.70388999999997,158.09488,146.44017999999997,161.54213,144.46685999999997,164.38655C143.19433999999995,166.22082,141.19676999999996,167.21108,139.24015999999997,167.20523C140.03034999999997,169.07366,139.83145999999996,171.39342,138.51047999999997,173.29754C137.17451999999997,175.22324,135.03822999999997,176.22444,132.99022999999997,176.11254C133.81221999999997,177.99167,133.62249999999997,180.34331,132.28653999999997,182.26901C130.31322999999998,185.11344,100.40933999999997,218.33891,97.80179999999997,216.52993C97.80179999999997,216.52993,97.8018,216.52993,97.8018,216.52993M133.03214,227.69072C130.13257,226.40072,138.80407,190.86763,140.21126,187.70463999999998C141.16394,185.56324999999998,143.07559,184.18059,145.10844,183.90792C143.94988,182.21542,143.69693,179.86975999999999,144.64961,177.72838C145.55706,175.68866999999997,147.33447999999999,174.34266,149.25773,173.98288C148.13239000000002,172.29497,147.89442,169.97889999999998,148.83643,167.86151999999998C150.24361000000002,164.69852999999998,153.73493000000002,163.18015,156.63452,164.47015C159.53409000000002,165.76013999999998,162.98639,171.24696999999998,161.57920000000001,174.40997C160.67175,176.44967,158.89434000000003,177.79567999999998,156.9711,178.15545999999998C158.09642,179.84336999999996,158.33440000000002,182.15944,157.3924,184.27682C156.43971000000002,186.41821,154.52806,187.80087999999998,152.49523000000002,188.07353999999998C153.65379000000001,189.76601999999997,153.90673,192.11169999999998,152.95404000000002,194.25309C151.54686,197.41607,135.93172,228.98071,133.03214000000003,227.69072C133.03214000000003,227.69072,133.03214,227.69072,133.03214,227.69072M161.7763,236.8834C158.71806999999998,236.03557999999998,160.92682,203.30819,161.8517,199.97212C162.47782999999998,197.71356,164.16442,196.06384,166.13474,195.49407C164.73901,193.99115999999998,164.14257,191.70852,164.7687,189.44995C165.36509,187.29863,166.92434,185.705,168.77339,185.06523C167.41121,183.56194000000002,166.83394,181.30638000000002,167.45303,179.07312000000002C168.37787,175.73705,171.60680000000002,173.71992000000003,174.66505,174.56773C177.72328000000002,175.41555000000002,182.3888,180.11349,181.46397000000002,183.44956000000002C180.86757000000003,185.60088000000002,179.30833,187.19453000000001,177.45926000000003,187.83429C178.82144000000002,189.33758,179.39873000000003,191.59314,178.77962000000002,193.82638C178.15348000000003,196.08496,176.4669,197.73467,174.49658000000002,198.30444C175.89230000000003,199.80737,176.48876,202.08999,175.86262000000002,204.34856C174.93779,207.68463,164.83462000000003,237.73120999999998,161.77635,236.8834C161.77635,236.8834,161.7763,236.8834,161.7763,236.8834M190.38746,228.80894C187.21951,228.99790000000002,188.15232,211.8159,187.94618,208.36013C187.80662999999998,206.02056,188.86760999999998,203.91331,190.54701,202.73581C188.73957,201.76628,187.43561,199.80011,187.29606,197.46051C187.16313000000002,195.23202,188.12182,193.21908,189.66372,192.01463999999999C187.88791,191.03387999999998,186.61085,189.08709,186.47287,186.77373999999998C186.26674,183.31797999999998,188.66777,180.36335999999997,191.83571,180.17437999999999C195.00366,179.98541999999998,201.08388,181.0443,201.29002,184.50006C201.42295,186.72857,200.46427,188.74148,198.92236,189.94593999999998C200.69815,190.92668999999998,201.97522,192.87346999999997,202.11321,195.18684C202.25276000000002,197.52641,201.19178000000002,199.63366,199.51238,200.81116C201.31982000000002,201.7807,199.27880000000002,205.33624,199.41838,207.67583C199.62452000000002,211.13157999999999,193.55545,228.61997,190.38750000000002,228.80893999999998C190.38750000000002,228.80893999999998,190.38746,228.80894,190.38746,228.80894" stroke-width="2"></path><path style="-webkit-tap-highlight-color: rgba(0, 0, 0, 0);" fill="#ffffff" stroke="#000000" d="M5.919715,163.51459C17.881050000000002,159.84935,16.918138,144.55055,21.099615999999997,132.58576C30.083566999999995,106.87925999999999,44.254566,105.97164,63.569216,110.02586C63.569216,110.02586,63.037456,114.18575999999999,63.037456,114.18575999999999C45.198773,111.78584,31.942532,110.51215,25.92753,146.10325C22.493687,166.42146,12.388937,179.14831,5.587253,180.07328C5.587253,180.07328,5.919715,163.51459,5.919715,163.51459M71.660253,18.71159C76.94653,30.050152,64.93836,39.578219,58.850997,50.695107C45.772234,74.579852,50.627139,93.62418,65.836583,104.92941C65.836583,104.92941,67.999644,101.05562,67.999644,101.05562C57.922134,101.86629,52.775239,66.355156,72.12388,45.230502C86.04198,30.034855,87.60394,13.049184,83.73691,7.377798C83.73691,7.377798,71.660253,18.71159,71.660253,18.71159" stroke-width="2"></path><path style="-webkit-tap-highlight-color: rgba(0, 0, 0, 0);" fill="#ffffff" stroke="#000000" d="M108.4686,127.41322C101.64042,142.76119,86.29212,150.83748,74.18722,145.45211C62.08231,140.06675,57.804678,123.25905,64.632857,107.91108C71.461042,92.5631,86.80934,84.4868,98.91425,89.87217C111.01915,95.25753999999999,115.29678,112.06523999999999,108.4686,127.41322C108.4686,127.41322,108.4686,127.41322,108.4686,127.41322" stroke-width="2"></path><path style="-webkit-tap-highlight-color: rgba(0, 0, 0, 0);" fill="#ff8c00" stroke="#000000" d="M218.98876,166.91043C202.02913,205.03127,163.76994000000002,167.8756,127.27063000000001,151.63737C90.77133,135.39915000000002,84.57119,161.5682,101.53082,123.44735C118.49045000000001,85.32651,116.08989000000001,114.06526,152.5892,130.30348C189.08851,146.54171000000002,235.94839000000002,128.78958,218.98876,166.91043000000002C218.98876,166.91043000000002,218.98876,166.91043,218.98876,166.91043" stroke-width="2"></path><path style="-webkit-tap-highlight-color: rgba(0, 0, 0, 0);" fill="#ffffff" stroke="#000000" d="M90.07427,98.91341C87.48479999999999,104.73385999999999,80.55996999999999,107.30539,74.60723,104.65707C68.654484,102.00874,65.928016,95.14344,68.517486,89.32298C71.106959,83.502517,78.03179,80.930993,83.98454000000001,83.579317C89.93728000000002,86.22764000000001,92.66375000000001,93.09295,90.07427000000001,98.91341C90.07427000000001,98.91341,90.07427,98.91341,90.07427,98.91341M74.03744,133.62855C71.447974,139.44899999999998,64.523137,142.02052999999998,58.570395000000005,139.37221C52.61765200000001,136.72388999999998,49.89118500000001,129.85857,52.480654,124.03811999999999C55.070127,118.21766,61.994965,115.64612,67.947708,118.29445C73.90045,120.94277,76.62692000000001,127.80807999999999,74.03744,133.62855C74.03744,133.62855,74.03744,133.62855,74.03744,133.62855" stroke-width="2"></path><path style="-webkit-tap-highlight-color: rgba(0, 0, 0, 0);" fill="#000000" stroke="#000000" d="M65.394327,129.29471C63.832032000000005,132.80635,59.80505900000001,134.42498,56.399834000000006,132.91003C52.994609000000004,131.39507,51.50062200000001,127.32021,53.062917000000006,123.80858C54.625217000000006,120.29693,58.65218800000001,118.67830000000001,62.057413000000004,120.19326000000001C65.462638,121.70821000000001,66.956626,125.78307000000001,65.394327,129.29471C65.394327,129.29471,65.394327,129.29471,65.394327,129.29471M80.92753,94.5567C79.36523000000001,98.06835000000001,75.33826,99.68697,71.933035,98.17202C68.52781,96.65706,67.033821,92.58221,68.59612,89.07057C70.158418,85.55893,74.18539,83.940298,77.59061,85.45525C80.99584,86.97021000000001,82.48983,91.04506,80.92753,94.5567C80.92753,94.5567,80.92753,94.5567,80.92753,94.5567" stroke-width="2"></path></svg>